<svg width="142" height="108" viewBox="0 0 142 108" fill="none" xmlns="http://www.w3.org/2000/svg">
<g clip-path="url(#clip0_1_45)" filter="url(#filter0_d_1_45)">
<g clip-path="url(#clip1_1_45)">
<path d="M44.6632 63.2379C46.3936 65.7345 47.6138 68.8606 47.09 71.6802C46.5813 74.5063 44.3285 77.0252 41.6794 79.0979C39.0303 81.1711 35.9823 82.7609 33.315 82.2972C30.6539 81.8182 28.371 79.2496 26.1121 76.9189C23.8596 74.5734 21.6161 72.4598 20.8073 69.7865C20.0135 67.1192 20.6608 63.8773 22.2606 61.103C23.8516 58.3075 26.3952 55.9795 29.2491 55.3624C32.1179 54.7512 35.2971 55.8502 37.9933 57.3445C40.7045 58.8454 42.9327 60.7419 44.6632 63.2379Z" fill="#9FD8E5"/>
<path d="M48.9617 17.8025C51.6579 21.7046 53.5566 26.5931 52.7338 31.0053C51.9346 35.4271 48.4139 39.3725 44.2754 42.6202C40.1369 45.8679 35.3766 48.3611 31.2145 47.6405C27.062 46.8964 23.5036 42.8817 19.9824 39.24C16.471 35.5748 12.9733 32.2727 11.716 28.0917C10.4821 23.9205 11.4983 18.8469 14.0004 14.5037C16.4888 10.1273 20.463 6.48126 24.9184 5.51003C29.3972 4.54861 34.3572 6.26205 38.5625 8.59511C42.7913 10.9379 46.2655 13.9004 48.9617 17.8025Z" fill="#9093D1"/>
<path d="M73.8321 67.2839C74.6974 68.5316 75.3073 70.0947 75.0454 71.5045C74.7912 72.9176 73.6646 74.1773 72.3404 75.2139C71.0158 76.25 69.4914 77.0454 68.158 76.813C66.8274 76.574 65.686 75.2892 64.5567 74.1244C63.43 72.9514 62.3083 71.8946 61.904 70.5579C61.5074 69.2245 61.8309 67.6031 62.6308 66.2162C63.4262 64.8184 64.698 63.6547 66.1252 63.3459C67.5595 63.0404 69.1488 63.5898 70.4969 64.3372C71.8527 65.0874 72.9668 66.0356 73.8321 67.2839Z" fill="#9093D1"/>
<path d="M90.75 9.418C92.145 11.4301 93.1287 13.95 92.7064 16.2227C92.2961 18.5004 90.4804 20.5311 88.345 22.2018C86.2102 23.8725 83.7529 25.1542 81.6033 24.7803C79.4581 24.3945 77.6184 22.3238 75.7972 20.4453C73.9816 18.5548 72.1735 16.8514 71.5215 14.6964C70.8816 12.5466 71.4037 9.9332 72.6929 7.69703C73.9755 5.44373 76.0258 3.56761 78.326 3.06995C80.6382 2.57735 83.2008 3.4632 85.3738 4.66781C87.5594 5.87749 89.3555 7.4059 90.75 9.418Z" fill="#9093D1"/>
<path d="M82.0332 37.4547C83.7638 39.951 84.9837 43.0772 84.46 45.8968C83.9515 48.7228 81.6988 51.2421 79.0494 53.3148C76.4007 55.3875 73.3525 56.9779 70.6852 56.5136C68.0238 56.0351 65.7411 53.4662 63.4824 51.1357C61.2297 48.7902 58.9862 46.6768 58.1774 44.0034C57.3836 41.3361 58.0309 38.0939 59.6306 35.3196C61.2215 32.5241 63.7656 30.1965 66.6189 29.579C69.4881 28.9679 72.6672 30.067 75.3635 31.5614C78.0745 33.0622 80.3026 34.9585 82.0332 37.4547Z" fill="#F7859C"/>
<path d="M126.694 63.855C129.391 67.7569 131.289 72.6459 130.467 77.058C129.667 81.4794 126.147 85.425 122.008 88.6729C117.87 91.9201 113.109 94.4135 108.947 93.6927C104.795 92.9491 101.237 88.9342 97.7154 85.2924C94.204 81.6272 90.7063 78.3254 89.4488 74.1441C88.2152 69.9731 89.2311 64.8992 91.7331 60.5564C94.2215 56.1797 98.196 52.5337 102.651 51.5625C107.13 50.6011 112.09 52.3146 116.296 54.6476C120.524 56.9905 123.999 59.953 126.694 63.855Z" fill="#FFDBB4"/>
</g>
</g>
<defs>
<filter id="filter0_d_1_45" x="0.520004" y="0.470001" width="140.59" height="106.75" filterUnits="userSpaceOnUse" color-interpolation-filters="sRGB">
<feFlood flood-opacity="0" result="BackgroundImageFix"/>
<feColorMatrix in="SourceAlpha" type="matrix" values="0 0 0 0 0 0 0 0 0 0 0 0 0 0 0 0 0 0 127 0" result="hardAlpha"/>
<feOffset dy="4"/>
<feGaussianBlur stdDeviation="2"/>
<feComposite in2="hardAlpha" operator="out"/>
<feColorMatrix type="matrix" values="0 0 0 0 0 0 0 0 0 0 0 0 0 0 0 0 0 0 0.25 0"/>
<feBlend mode="normal" in2="BackgroundImageFix" result="effect1_dropShadow_1_45"/>
<feBlend mode="normal" in="SourceGraphic" in2="effect1_dropShadow_1_45" result="shape"/>
</filter>
<clipPath id="clip0_1_45">
<rect width="132.59" height="98.75" fill="white" transform="translate(4.52 0.470001)"/>
</clipPath>
<clipPath id="clip1_1_45">
<rect width="132.59" height="98.75" fill="white" transform="translate(4.52 0.470001)"/>
</clipPath>
</defs>
</svg>
