<svg width="155" height="190" viewBox="0 0 155 190" fill="none" xmlns="http://www.w3.org/2000/svg">
<g clip-path="url(#clip0_1_8)">
<g clip-path="url(#clip1_1_8)">
<path d="M82.3744 104.78C83.4136 103.789 84.7846 102.99 86.1402 103.029C87.4972 103.059 88.8393 103.927 90.0015 105.013C91.1637 106.098 92.1295 107.405 92.108 108.686C92.0793 109.964 91.0467 111.218 90.1236 112.444C89.1929 113.668 88.37 114.87 87.1805 115.444C85.9925 116.01 84.4308 115.945 83.018 115.401C81.5952 114.863 80.3216 113.845 79.8246 112.557C79.3289 111.261 79.6098 109.696 80.11 108.328C80.6124 106.951 81.3352 105.771 82.3744 104.78Z" fill="#9093D1"/>
<path d="M26.3801 69.6247C28.4587 67.6425 31.2006 66.0447 33.9114 66.1211C36.6259 66.1825 39.3094 67.9181 41.6337 70.0894C43.9581 72.2607 45.89 74.8753 45.8472 77.4352C45.7897 79.9913 43.7241 82.5003 41.8778 84.9518C40.0167 87.3995 38.3708 89.8051 35.9916 90.9523C33.616 92.0845 30.4925 91.9545 27.6661 90.8665C24.8215 89.7895 22.2745 87.7542 21.2797 85.1785C20.2889 82.5876 20.85 79.4566 21.8511 76.7192C22.8561 73.9664 24.3015 71.6069 26.3801 69.6247Z" fill="#F7859C"/>
<path d="M22.3241 120.172C24.4025 118.19 27.1445 116.592 29.8553 116.669C32.5698 116.73 35.2534 118.466 37.5777 120.637C39.9018 122.808 41.8339 125.423 41.7913 127.982C41.7339 130.539 39.6684 133.048 37.8221 135.499C35.9604 137.947 34.3148 140.353 31.9356 141.5C29.5603 142.632 26.4362 142.502 23.6103 141.414C20.7657 140.337 18.2189 138.302 17.224 135.726C16.2327 133.135 16.7938 130.004 17.7953 127.267C18.8004 124.514 20.2453 122.155 22.3241 120.172Z" fill="#F7859C"/>
<path d="M71.429 55.8971C74.6795 52.8068 78.9684 50.317 83.2108 50.4395C87.4588 50.5386 91.6604 53.2499 95.3006 56.6406C98.9405 60.0309 101.967 64.113 101.903 68.107C101.816 72.095 98.587 76.0075 95.7005 79.8304C92.7905 83.6474 90.218 87.3987 86.4961 89.1856C82.7801 90.9493 77.8916 90.7431 73.4677 89.0417C69.0148 87.358 65.0263 84.1794 63.4665 80.159C61.9123 76.1157 62.7867 71.2311 64.3504 66.9607C65.9197 62.667 68.1785 58.9874 71.429 55.8971Z" fill="#9FD8E5"/>
<path d="M48.5986 96.1044C50.677 94.122 53.419 92.5243 56.1299 92.6007C58.8443 92.6621 61.5279 94.3979 63.8522 96.5692C66.1763 98.7401 68.1085 101.355 68.0658 103.914C68.008 106.471 65.9425 108.98 64.0962 111.432C62.2349 113.879 60.5893 116.285 58.2101 117.432C55.8348 118.564 52.7107 118.434 49.8848 117.346C47.0402 116.269 44.4934 114.234 43.4985 111.658C42.5072 109.067 43.0683 105.936 44.0698 103.198C45.0745 100.446 46.5198 98.0864 48.5986 96.1044Z" fill="#FFDBB4"/>
</g>
</g>
<defs>
<clipPath id="clip0_1_8">
<rect width="132.59" height="135.69" fill="white" transform="translate(68.95 0.51001) rotate(50)"/>
</clipPath>
<clipPath id="clip1_1_8">
<rect width="132.59" height="135.69" fill="white" transform="translate(68.95 0.51001) rotate(50)"/>
</clipPath>
</defs>
</svg>
