<svg width="30" height="29" viewBox="0 0 30 29" fill="none" xmlns="http://www.w3.org/2000/svg">
<path d="M26.6667 22.6156H3.33333C3.11232 22.6156 2.90036 22.5336 2.74408 22.3878C2.5878 22.2419 2.5 22.0441 2.5 21.8378C2.5 21.6315 2.5878 21.4337 2.74408 21.2878C2.90036 21.1419 3.11232 21.06 3.33333 21.06H26.6667C26.8877 21.06 27.0996 21.1419 27.2559 21.2878C27.4122 21.4337 27.5 21.6315 27.5 21.8378C27.5 22.0441 27.4122 22.2419 27.2559 22.3878C27.0996 22.5336 26.8877 22.6156 26.6667 22.6156Z" fill="#222222"/>
<path d="M26.6667 14.8378H3.33333C3.11232 14.8378 2.90036 14.7558 2.74408 14.61C2.5878 14.4641 2.5 14.2663 2.5 14.06C2.5 13.8537 2.5878 13.6559 2.74408 13.51C2.90036 13.3642 3.11232 13.2822 3.33333 13.2822H26.6667C26.8877 13.2822 27.0996 13.3642 27.2559 13.51C27.4122 13.6559 27.5 13.8537 27.5 14.06C27.5 14.2663 27.4122 14.4641 27.2559 14.61C27.0996 14.7558 26.8877 14.8378 26.6667 14.8378Z" fill="#222222"/>
<path d="M26.6667 7.06001H3.33333C3.11232 7.06001 2.90036 6.97807 2.74408 6.83221C2.5878 6.68635 2.5 6.48852 2.5 6.28224C2.5 6.07596 2.5878 5.87813 2.74408 5.73226C2.90036 5.5864 3.11232 5.50446 3.33333 5.50446H26.6667C26.8877 5.50446 27.0996 5.5864 27.2559 5.73226C27.4122 5.87813 27.5 6.07596 27.5 6.28224C27.5 6.48852 27.4122 6.68635 27.2559 6.83221C27.0996 6.97807 26.8877 7.06001 26.6667 7.06001Z" fill="#222222"/>
</svg>
