<svg width="54" height="58" viewBox="0 0 54 58" fill="none" xmlns="http://www.w3.org/2000/svg">
<rect width="54" height="58" fill="#F5F5F5"/>
<g id="nft-peeps.webflow.io by html.to.design &#226;&#157;&#164;&#239;&#184;&#143; FREE version - 12/11/2023, 18:58:02 GMT+3">
<rect width="390" height="12076.6" transform="translate(-16 -11.5)" fill="white"/>
<g id="Banner &#226;&#134;&#146; Link - home &#226;&#134;&#146; 621c872ed20b84691df4fa18_logo.svg" clip-path="url(#clip0_0_1)">
<g id="621c872ed20b84691df4fa18_logo.svg fill" clip-path="url(#clip1_0_1)">
<g id="621c872ed20b84691df4fa18_logo.svg">
<path id="Vector" d="M14.5869 11.2225C18.4423 7.71385 23.4892 4.92939 28.4158 5.17912C33.3497 5.40186 38.1633 8.6588 42.3073 12.691C46.4513 16.7231 49.8647 21.543 49.6895 26.1825C49.4875 30.8148 45.6357 35.2791 42.1847 39.6483C38.7068 44.0103 35.6223 48.3042 31.2522 50.2864C26.8893 52.2416 21.2139 51.8781 16.1163 49.789C10.9845 47.7196 6.43054 43.9247 4.71979 39.2139C3.01627 34.476 4.15598 28.8221 6.08117 23.8994C8.0136 18.9497 10.7314 14.7312 14.5869 11.2225Z" fill="#FFDBB4"/>
<path id="Vector_2" fill-rule="evenodd" clip-rule="evenodd" d="M26.3585 12.2622C30.4778 12.2622 34.7386 15.4827 36.2485 17.5378C37.9945 19.9141 39.3719 31.3215 38.7257 35.1923C38.0796 39.0631 34.8701 43.2819 29.2985 43.2819C23.727 43.2819 20.3362 42.5898 20.2003 41.5844C20.1097 40.9142 18.8847 38.7136 16.5254 34.9828C14.1125 34.2983 12.9012 33.1385 12.8917 31.5034C12.8824 29.8683 13.5289 28.7532 14.8314 28.1583C14.367 21.7055 14.7195 17.6391 15.8891 15.959C17.6435 13.439 22.2392 12.2622 26.3585 12.2622Z" fill="#EDB98A"/>
<path id="Vector_3" fill-rule="evenodd" clip-rule="evenodd" d="M24.2612 11.292L24.3347 11.2923C28.8924 11.3221 33.528 13.4374 36.2396 17.1326L36.3211 17.2451C36.3256 17.251 36.4067 17.3728 36.4259 17.4075C36.5383 17.611 36.6707 17.8013 36.7722 18.0081C36.858 18.1838 36.915 18.38 36.978 18.567L36.9971 18.6228C37.159 19.0897 37.2953 19.5609 37.4158 20.0402C37.6494 20.9731 37.8315 21.9207 38.0086 22.8661C38.6412 26.2514 39.0548 29.6851 39.2633 33.1231L39.3044 33.8145C39.3465 34.5315 39.3783 35.2516 39.2985 35.9663C39.2062 36.7982 38.9691 37.579 38.6099 38.3327C38.279 39.0278 37.8525 39.6717 37.3643 40.2637C37.1032 40.5805 36.826 40.8886 36.485 41.1205C36.2137 41.3049 35.8965 41.4264 35.5912 41.5435C35.0943 42.044 34.4565 42.4223 33.8334 42.7245C32.8061 43.2213 31.6925 43.4958 30.5658 43.6333C29.4137 43.773 28.2501 43.7394 27.1075 43.5397C26.0156 43.3494 24.8453 42.8628 24.1728 41.9357C24.1148 41.856 24.2228 41.7806 24.294 41.8135C26.2456 42.7245 28.4386 42.9623 30.5658 42.6747C31.5582 42.5408 32.5347 42.2642 33.4409 41.8347C34.2056 41.4725 34.8504 40.9456 35.5368 40.4685C35.6703 40.2893 35.8051 40.1129 35.9591 39.9491L36.1991 39.6952C36.3786 39.5045 36.5547 39.3111 36.7149 39.1024C37.2098 38.4593 37.6196 37.7297 37.8903 36.9622C38.4167 35.468 38.2743 33.8461 38.1813 32.289L38.1732 32.1518C38.0774 30.4864 37.9214 28.8268 37.7053 27.173C37.489 25.5172 37.2141 23.8679 36.8891 22.2302C36.7288 21.4231 36.5488 20.6212 36.39 19.8141C36.308 19.3977 36.2507 18.9755 36.1883 18.5548C36.1505 18.2987 36.1512 18.0521 36.1505 17.8019C36.1433 17.8135 36.1345 17.8245 36.1259 17.8355C36.152 17.8977 36.1339 17.9775 36.0701 18.014C35.8285 18.1531 35.5499 18.1062 35.2778 18.107C34.989 18.1084 34.7003 18.1092 34.4115 18.1099C34.1108 18.111 33.8101 18.111 33.5094 18.1105L32.6072 18.1084L28.9987 18.0974C26.6355 18.0903 24.2322 18.1851 21.8766 17.9604L21.6967 17.9425C21.5117 17.921 19.4226 17.6633 18.8577 17.5968L18.8405 17.5948C17.8081 17.4747 16.7903 17.2969 15.787 17.0306C16.1149 17.163 16.4305 17.3416 16.7554 17.4769C17.1748 17.6511 17.605 17.8033 18.0353 17.9489C18.9182 18.2482 19.8025 18.5387 20.6818 18.8475C20.9339 18.9359 21.5067 21.1141 21.6511 21.4587L21.6553 21.4685C21.7287 21.6346 21.8295 21.8168 21.7736 22.0056C21.6503 22.4227 20.9966 22.7315 20.6724 22.9671L20.339 23.2098L19.903 23.5279C19.7242 23.6571 19.5591 23.7559 19.3251 23.682L19.323 23.6813C19.5233 24.6186 19.6205 27.6502 19.6502 28.1821C19.6763 28.6453 19.8112 29.2387 19.5965 29.661C19.5457 29.7612 19.4137 29.8403 19.3012 29.8322C18.8107 29.7949 18.3204 29.7582 17.8299 29.7217C17.6985 29.7114 17.5789 29.6361 17.5426 29.5015L17.5412 29.4941C17.5253 29.4985 17.5071 29.4956 17.4919 29.4795C17.465 29.4524 17.4375 29.4261 17.4091 29.4004C16.7635 28.8195 15.7536 28.676 14.957 28.9783C14.5392 29.1363 14.064 29.4026 13.7694 29.7481C13.4422 30.1315 13.3719 30.6671 13.3711 31.1566C13.3696 32.1005 13.7078 33.0561 14.3977 33.711C15.0316 34.3122 15.8495 34.4872 16.6724 34.6592L16.7606 34.6777C16.9484 34.7172 17.008 34.9996 16.8666 35.1182C17.2431 35.4899 17.5681 35.9333 17.8851 36.3423C18.3061 36.885 18.7087 37.4492 19.1004 38.0145L19.2894 38.288C19.9632 39.2579 20.9384 40.5938 20.5142 41.8062C20.4576 41.9694 20.2211 42.0279 20.1289 41.8567C19.8265 41.2933 19.6574 40.6727 19.3701 40.1027C19.088 39.5437 18.7368 39.0256 18.3885 38.5076L18.1876 38.2073C17.8532 37.7059 17.5218 37.1991 17.2147 36.6826L17.0009 36.325C16.7999 35.9873 16.601 35.6384 16.4529 35.2755C15.4626 35.5162 14.386 34.9806 13.6903 34.2672C12.8155 33.3686 12.4041 32.0449 12.5172 30.8003C12.5768 30.149 12.7676 29.519 13.2405 29.0507C13.2884 29.0039 13.3385 28.9592 13.3901 28.9146C13.3719 28.9051 13.3566 28.8905 13.3494 28.8729C13.0323 28.1133 12.9648 27.2082 12.9379 26.3901C12.9098 25.5443 12.9279 24.6962 12.9916 23.8517C13.1085 22.3034 13.3856 20.7632 13.8253 19.2748C14.476 17.0752 15.594 14.9218 17.3802 13.4459C19.2848 11.8717 21.8366 11.288 24.2612 11.292ZM14.78 30.531C15.049 30.4079 15.4687 30.6272 15.7081 30.7669L15.7239 30.7761C16.4312 31.191 16.9347 31.8978 17.1675 32.6808C17.317 33.1857 16.4776 33.3869 16.4065 32.8923C16.3485 32.4891 16.215 32.1115 15.9953 31.7742C15.9429 31.7918 15.8921 31.8145 15.8465 31.8437C15.6717 31.9578 15.57 32.154 15.3271 32.1247C15.1471 32.1035 14.9628 31.9776 14.9751 31.7698C14.9948 31.4266 15.2689 31.2898 15.5629 31.2722C15.5209 31.2343 15.4786 31.1969 15.4352 31.1607L15.3878 31.1223C15.3341 31.0832 14.7591 30.6832 14.7426 30.7861L14.7422 30.7922C14.743 30.8331 14.6886 30.8566 14.661 30.8259C14.55 30.7059 14.6531 30.5895 14.78 30.531Z" fill="black"/>
<path id="Vector_4" fill-rule="evenodd" clip-rule="evenodd" d="M29.5294 34.7287C29.9361 34.0554 30.8029 35.7048 30.895 35.9884C30.9767 36.2397 31.0305 36.4971 31.0579 36.7574C31.3731 36.8286 31.7006 36.8286 32.0236 36.7663C32.5039 36.6736 32.7973 36.4138 33.2147 36.1907C33.5029 36.0366 33.8662 36.2173 34.0161 36.4729C34.1924 36.7739 34.0801 37.0863 33.8482 37.3106C33.4084 37.736 32.5431 37.8338 31.9691 37.7207C31.6402 37.656 31.3388 37.5319 31.0725 37.3515C31.0708 37.3852 31.0696 37.4188 31.067 37.4525L31.0619 37.5108C31.0178 37.9826 30.8889 38.5759 30.5248 38.8828C29.9277 39.3864 29.1906 38.418 29.7709 37.9149L29.7889 37.8998C30.1495 37.6065 30.2283 36.8196 30.2089 36.3861C30.1961 36.1032 30.1449 35.8167 30.0562 35.5472L30.0379 35.4935C30.0112 35.4174 29.7199 34.6954 29.6146 34.7873L29.6096 34.7925C29.5662 34.8447 29.4961 34.7839 29.5294 34.7287ZM32.7766 30.9292C33.3256 31.2651 34.162 32.0482 33.5715 32.8809C32.8763 33.6151 31.8753 32.7733 31.3821 32.3926C30.9248 32.0975 30.4109 32.8564 30.8353 33.2009C34.3993 35.8567 35.8458 31.017 33.0543 30.5343C32.7469 30.4811 32.6328 30.8253 32.7766 30.9292ZM26.9142 27.8247C27.4508 27.7289 28.0004 27.8632 28.4444 28.1792L28.478 28.2035C28.9057 28.5184 29.3844 29.0712 29.1389 29.6139C29.0404 29.8318 28.7454 29.866 28.5582 29.7672C28.2465 29.6027 28.19 29.1981 27.9119 28.9741C27.6838 28.7905 27.3768 28.6791 27.083 28.7059C26.393 28.769 25.9686 29.454 25.7542 30.0443C25.7269 30.1198 25.6167 30.1491 25.5737 30.0681C25.0683 29.1174 25.9628 27.9946 26.9142 27.8247ZM35.5084 27.4659C36.5361 27.3807 37.7391 28.4531 37.4685 29.545C37.3387 30.0689 36.5666 30.0539 36.4293 29.545C36.3537 29.265 36.3613 29.0172 36.1611 28.7847C35.9957 28.5926 35.7608 28.4811 35.5084 28.4982C35.23 28.5172 34.9733 28.6571 34.7783 28.8539C34.6021 29.0315 34.4968 29.2915 34.3143 29.4488C34.2693 29.4874 34.2092 29.4899 34.1649 29.4488C33.8508 29.1574 34.0393 28.5506 34.2384 28.2463C34.5235 27.811 34.9875 27.5092 35.5084 27.4659ZM24.957 25.8882C25.6164 25.3007 26.8144 24.7334 27.7035 25.0225C28.2146 25.1888 28.4375 26.0177 27.8668 26.2805C27.2061 26.5847 26.4442 26.4609 25.7716 26.7763C25.4892 26.9088 25.2236 27.0744 25.0269 27.3172C24.8719 27.5086 24.7143 27.7606 24.4903 27.8709C24.4314 27.8999 24.3517 27.9006 24.3045 27.8468C23.8133 27.2876 24.5281 26.2702 24.957 25.8882ZM34.3751 24.9934C34.7826 24.8783 35.2346 24.8806 35.6486 24.953C36.0624 25.0252 36.4826 25.1978 36.8204 25.4496L36.8596 25.4791C37.2285 25.7588 37.6686 26.1658 37.645 26.6614C37.6252 27.0752 37.1928 27.355 36.8194 27.1382C36.515 26.9613 36.3717 26.607 36.114 26.3711C35.9014 26.1764 35.6516 26.0229 35.385 25.9153C35.089 25.7958 34.7924 25.7398 34.4748 25.7345C34.2301 25.7304 33.984 25.8112 33.744 25.837C33.7637 25.8778 33.574 25.8588 33.4652 25.8226C33.3847 25.7881 33.3842 25.6856 33.4122 25.619C33.5507 25.2896 34.0545 25.0838 34.3751 24.9934Z" fill="black"/>
<path id="Vector_5" fill-rule="evenodd" clip-rule="evenodd" d="M41.2189 25.3581C41.1591 25.3481 41.0992 25.3387 41.0393 25.3298C40.9925 25.3031 40.9376 25.2826 40.8738 25.2701C40.7281 25.233 40.5833 25.2078 40.4388 25.1943C38.3644 24.7244 33.5656 25.3916 33.3676 27.1732C32.707 27.3951 32.1355 27.1964 31.3699 27.2162C30.787 24.7645 20.7118 25.1105 20.2273 26.5886C20.2254 26.5881 20.2236 26.5876 20.2218 26.587C19.7562 26.442 19.0698 26.477 18.5369 26.4541C17.399 26.43 16.2599 26.5321 15.1466 26.7737C13.0619 27.1071 10.2167 27.4975 11.6666 30.1177C11.6669 30.1181 11.6671 30.1186 11.6674 30.119C11.9173 30.3768 12.3417 30.169 12.3574 29.8201C11.8699 28.5788 12.971 28.4297 13.8181 28.073C15.9259 27.3108 18.0719 27.2051 20.252 27.4409C20.4159 27.6352 20.6648 27.8048 20.9278 27.8934C22.3854 28.1369 21.6173 29.2252 22.5386 29.3834C22.3694 33.1768 26.9453 35.2475 29.5966 32.7538C30.6553 31.7122 30.9076 30.169 31.153 28.7781C31.2828 28.7487 31.3653 28.6773 31.4135 28.5828C31.7256 28.2692 31.9217 27.9795 32.5388 27.8934C33.156 27.8073 33.6311 27.9801 33.6954 28.033C33.7116 28.0659 33.729 28.0988 33.7492 28.1317C33.7774 28.1808 33.8158 28.22 33.8594 28.2508C33.25 32.0283 36.1637 34.4172 39.1051 32.458C40.3832 31.2479 40.6532 29.3953 40.7066 27.7418C40.8799 27.6366 40.9895 27.4326 40.9296 27.1762C40.8469 26.8228 41.0407 26.5168 41.3494 26.3631C41.7505 26.1636 41.6796 25.4349 41.2189 25.3581ZM28.5799 27.1502C28.2148 27.0693 28.0589 27.636 28.4251 27.717C28.6846 27.7744 28.9043 27.906 29.0529 28.129L29.0685 28.1533C29.2678 28.4725 29.7717 28.1778 29.571 27.8566C29.3452 27.4951 28.9944 27.2419 28.5799 27.1502ZM39.2733 26.799C39.1446 26.7077 38.9498 26.7754 38.8752 26.9044C38.7929 27.0463 38.8468 27.2044 38.9673 27.2973L38.9796 27.3064C39.0902 27.3848 39.1979 27.5254 39.2114 27.6695L39.2126 27.6875C39.2271 28.0645 39.8092 28.0665 39.7946 27.6875C39.7805 27.3168 39.5672 27.0071 39.2733 26.799Z" fill="black"/>
</g>
</g>
</g>
</g>
<defs>
<clipPath id="clip0_0_1">
<rect width="54" height="57.13" fill="white" transform="translate(0 0.5)"/>
</clipPath>
<clipPath id="clip1_0_1">
<rect width="54" height="57.13" fill="white" transform="translate(0 0.5)"/>
</clipPath>
</defs>
</svg>
