<svg width="149" height="212" viewBox="0 0 149 212" fill="none" xmlns="http://www.w3.org/2000/svg">
<path fill-rule="evenodd" clip-rule="evenodd" d="M67.747 80.0031L65.4975 85.5645L66.7369 103.192L67.6592 103.336C77.3997 104.846 84.0186 105.608 87.5158 105.624L87.6241 105.624C91.1459 105.624 95.366 104.838 100.284 103.264L100.508 103.192L101.076 89.993H99.7372L97.3151 84.3146L97.3173 84.3127C97.344 84.3582 97.3718 84.4023 97.4007 84.4451C98.4105 85.9386 98.9957 84.7324 101.368 85.2607C104.209 85.8932 105.47 88.7639 107.97 90.9094C109.131 91.9055 111.568 92.3751 112.734 93.0599L113.959 93.7797C117.798 96.0436 122.209 98.7938 124.526 102.376C127.241 106.576 129.113 110.562 130.841 115.234C134.567 125.305 137.153 135.581 139.001 146.149C140.874 156.86 141.999 167.704 142.859 178.54C143.257 183.561 143.595 188.587 143.875 193.616L143.944 194.873C144.091 197.609 143.963 200.287 141.475 201.972C139.693 203.179 137.327 203.363 135.235 203.487L135.122 203.493C119.659 204.4 104.197 205.3 88.7339 206.202L65.5403 207.558C61.6811 207.785 57.8219 208.009 53.9626 208.232L44.5424 208.776C40.1026 209.029 35.6574 209.248 31.2116 209.222C25.6182 209.189 20.0486 208.776 14.5067 208.031L14.0178 207.964C10.5313 207.482 5.47591 206.265 4.84965 202.083C4.75974 201.483 5.28818 201.108 5.73186 201.194C5.58587 200.513 5.49522 199.832 5.40862 199.24C5.03701 196.71 4.80368 194.163 4.68839 191.609C4.45708 186.498 4.65199 181.363 5.16297 176.274C6.0083 167.855 7.19329 159.45 8.41772 151.075L8.69034 149.215C9.9927 140.341 11.5433 131.483 13.9696 122.84C16.211 114.855 19.7077 106.549 24.519 101.501C29.3303 96.4517 36.1902 92.0653 43.2389 89.3784C43.8493 89.1456 55.9774 86.4903 56.7946 86.877L56.9413 86.762C59.3593 84.853 62.8087 81.4998 66.3602 82.5558L66.3683 82.5425C66.4521 82.3885 66.7801 81.3583 67.2333 80.0031H67.747Z" fill="#8FA7DF"/>
<path fill-rule="evenodd" clip-rule="evenodd" d="M70.312 72.6012C73.2495 68.8771 76.3459 67.6932 80.9214 67.9707C84.0242 67.8598 87.1187 68.6651 89.7461 70.4443C92.1533 71.7021 94.2881 73.4337 95.8118 75.6625C97.1149 77.5682 96.1249 82.2771 97.3151 84.3146C97.3035 84.5363 97.2976 84.7384 97.2976 84.921C97.2976 86.6841 98.5246 88.6516 100.979 90.8235L101.076 90.9094V103.721C96.9503 104.99 91.8423 105.624 85.752 105.624C79.7526 105.624 73.5125 104.617 67.0316 102.602L66.7369 102.51L65.4974 88.5857L66.7369 84.7324L66.7367 81.5051L67.2156 80.0615C68.0637 77.5235 69.3619 73.8058 70.312 72.6012Z" fill="#694D3D"/>
<path fill-rule="evenodd" clip-rule="evenodd" d="M66.7369 102.51C73.9992 104.625 80.1092 105.682 85.0669 105.682C90.0246 105.682 95.1718 104.625 100.508 102.51L99.2098 206.933L78.3085 207.188L66.7369 102.51Z" fill="#9FD8E5"/>
<path fill-rule="evenodd" clip-rule="evenodd" d="M30.8772 148.104C30.7966 147.954 30.9835 147.818 31.1074 147.927C33.923 150.398 35.3971 154.366 35.7062 158.034C36.0337 161.923 35.5694 165.95 35.3919 169.838C35.1945 174.168 35.017 178.5 34.776 182.829C34.5312 187.22 34.2676 191.611 34.0416 196.003L33.5332 205.884C33.4791 206.937 33.5963 208.232 33.1921 209.215C32.5658 210.738 30.7056 210.502 30.3146 209.229L30.3024 209.187L30.2667 209.215C29.9218 208.067 30.1799 206.704 30.2384 205.518L30.7711 194.722C31.1474 187.092 31.483 179.461 31.8873 171.832L32.0247 169.289C32.2137 165.865 32.3586 162.451 32.475 159.028L32.5127 157.887C32.6232 154.451 32.5355 151.207 30.8772 148.104ZM99.1319 84.7582C100.7 84.6093 101.885 85.1295 103.309 85.6774C103.929 85.9159 104.517 86.1915 105.112 86.4769C105.857 86.8342 106.336 87.4658 106.795 88.1337L107.041 88.4936C108.951 91.2928 110.236 94.5223 111.687 97.57C113.383 101.135 115.096 104.692 116.756 108.274L117.576 110.039C117.985 110.922 118.394 111.805 118.796 112.69L119.491 114.232C120.189 115.795 120.815 117.449 119.82 119.062C118.895 120.562 117.254 121.723 115.955 122.882C114.871 123.85 113.787 124.817 112.703 125.784C114.944 128.029 116.449 130.854 117.333 133.885C118.59 133.362 120.123 133.261 121.423 133.035C123.241 132.718 123.464 135.471 121.748 135.437C120.48 135.412 118.993 135.542 117.693 135.275C117.919 136.271 118.083 137.282 118.187 138.295C118.733 143.608 117.539 148.952 116.294 154.093L116.192 154.515C114.839 160.079 113.557 165.657 112.41 171.267C111.26 176.889 110.226 182.535 109.308 188.2C108.373 193.965 107.712 199.763 107.001 205.559C106.894 206.436 106.342 207.188 105.372 207.188C104.565 207.188 103.642 206.434 103.743 205.559C104.477 199.247 105.517 192.968 106.55 186.699C108.329 175.904 110.569 165.202 113.146 154.571L113.596 152.719C114.755 147.918 115.807 142.97 115.225 138.017C114.752 133.984 113.065 129.684 109.733 127.179L109.631 127.103C108.853 126.532 108.553 125.441 109.32 124.689C109.808 124.21 110.296 123.732 110.785 123.255L113.719 120.39L114.31 119.812C114.804 119.33 115.299 118.852 115.809 118.388C116.118 118.107 116.956 117.572 117.017 117.111C117.057 116.809 116.7 116.28 116.556 116.003L115.894 114.666C115.518 113.904 115.153 113.137 114.786 112.37C114.025 110.782 113.253 109.199 112.509 107.603L108.037 98.0212C106.775 95.3179 105.652 92.4641 104.002 89.9649L103.677 89.4778C103.406 89.0676 103.166 88.6728 102.994 88.1711C102.829 87.6884 102.622 87.1585 102.317 86.7466C101.603 85.78 100.238 85.2317 99.0953 85.0293C98.9301 84.9998 98.9901 84.7718 99.1319 84.7582ZM64.7382 82.2415C64.8375 82.2415 64.8525 82.3833 64.761 82.4109C63.3827 82.8253 62.0656 83.4941 60.9911 84.4594C60.477 84.9213 59.9594 85.4455 59.642 86.0673C59.5205 86.3053 59.4533 86.5567 59.404 86.8173L59.3883 86.9045C59.3064 87.3754 59.1892 87.6374 58.9499 88.0144L58.9089 88.0783C57.5433 90.1872 56.5862 92.5295 55.7112 94.8748L53.8056 99.9885L51.9012 105.103C51.2876 106.751 50.6737 108.399 50.0599 110.047C49.7209 110.956 49.3722 111.862 49.0238 112.768C48.873 113.161 48.7109 113.551 48.573 113.948C48.554 114.002 48.4937 114.329 48.4485 114.409L48.4639 114.436C48.848 115.082 49.8724 115.622 50.453 116.091L52.4525 117.707C53.878 118.86 55.3401 119.98 56.7229 121.185C57.5915 121.941 57.0511 123.295 56.0824 123.61C54.4592 124.139 52.8689 124.772 51.27 125.37C50.6241 125.612 49.9516 125.822 49.3132 126.089L48.9246 126.257C48.7728 126.325 48.8458 126.324 48.8519 126.604C48.858 126.898 48.9413 127.204 48.9891 127.493C49.5276 130.749 50.0985 134 50.7011 137.245C52.8325 148.721 55.3789 160.113 58.2832 171.417C59.7501 177.126 61.3233 182.806 62.8224 188.506C64.3178 194.191 66.2854 199.795 68.1642 205.362C68.6943 206.933 66.2045 207.609 65.6875 206.045C63.5222 199.497 61.5414 192.891 59.4958 186.306C55.8614 174.604 52.9975 162.648 50.4644 150.664C49.209 144.724 48.0607 138.762 47.0207 132.78C46.8238 131.648 46.6307 130.515 46.4416 129.381L46.1659 127.714C45.977 126.525 45.8694 125.287 46.7933 124.346C47.6954 123.428 49.2441 123.103 50.4312 122.672L50.5174 122.641C51.2727 122.359 52.0336 122.087 52.7915 121.807C51.675 120.928 50.5724 120.03 49.4587 119.151C48.5603 118.443 47.6477 117.748 46.7622 117.024C46.0321 116.426 45.4367 115.658 45.3606 114.686C45.2829 113.692 45.7088 112.77 46.0522 111.858L46.0852 111.77C46.4224 110.86 46.7606 109.951 47.1073 109.044L49.2531 103.433C50.6167 99.867 51.9227 96.2724 53.3569 92.7343C53.9243 91.3341 54.5427 89.956 55.2734 88.6325C55.6257 87.9943 56.0036 87.3697 56.4141 86.7673C56.8742 86.0918 57.2918 85.7625 58.0046 85.3898C59.1444 84.7939 60.039 83.7947 61.1836 83.1804C62.307 82.5773 63.4628 82.2555 64.7382 82.2415ZM68.4385 75.8799C68.482 75.8051 68.5975 75.8383 68.599 75.9235C68.6288 77.6956 68.2077 79.5066 67.9486 81.2588C67.6884 83.0174 67.605 84.8736 67.2286 86.6134C67.2208 86.6944 67.2051 86.7743 67.183 86.8527L67.165 86.9123C67.0061 87.3998 66.5929 87.8129 66.086 87.942C66.2454 88.8253 66.3956 89.7101 66.522 90.5997C66.7389 92.1287 66.937 93.66 67.1317 95.1917L67.3648 97.03C67.5849 98.7624 67.799 100.496 68.0106 102.229C68.5488 102.454 69.098 102.64 69.6605 102.801C70.9558 103.171 72.2826 103.322 73.6194 103.453C76.3417 103.72 79.0848 103.844 81.8167 103.996L82.402 104.029C85.4734 104.204 88.5615 104.236 91.6251 103.921C93.1443 103.764 94.6515 103.502 96.1329 103.13C96.8857 102.942 97.6173 102.66 98.3686 102.475C98.6177 102.414 98.8404 102.273 99.0901 102.122C99.201 101.982 99.3565 101.876 99.5592 101.835L99.614 101.825L99.6684 101.817L99.6871 101.809L99.6857 101.815C99.8394 101.794 99.9854 101.794 100.123 101.813C100.178 100.461 100.237 99.1098 100.312 97.7587C100.512 94.1298 101.063 90.3443 100.327 86.747C100.302 86.626 100.467 86.5834 100.51 86.6966C101.955 90.5048 101.793 94.6689 101.865 98.6769C101.937 102.597 101.894 106.519 101.874 110.439C102.155 110.559 102.405 110.721 102.604 110.948C103 111.402 103.114 112.192 102.604 112.63C102.378 112.825 102.127 112.959 101.862 113.053C101.848 116.459 101.824 119.865 101.789 123.271C102.437 123.771 102.498 124.959 101.765 125.453C101.643 136.483 101.443 147.514 101.276 158.542L100.928 181.68C100.882 184.763 100.805 187.845 100.777 190.928L100.799 190.936L100.876 190.972C101.006 191.033 101.199 191.132 101.239 191.232C101.25 191.259 101.252 191.277 101.251 191.291C101.464 191.32 101.674 191.421 101.856 191.594C102.306 192.021 102.215 192.665 101.856 193.1L101.761 193.217C101.537 193.488 101.113 193.592 100.767 193.537C100.77 195.461 100.782 197.385 100.776 199.309C100.774 199.897 100.766 200.484 100.755 201.072L100.731 202.481C100.715 203.285 100.644 204.307 99.8202 204.668C98.8911 205.076 98.058 204.742 97.6818 203.798C97.58 203.542 97.6018 203.304 97.639 203.052C97.6274 202.672 97.568 202.232 97.5754 201.88L97.6061 200.411C97.6109 200.184 97.62 199.958 97.6265 199.731L97.5996 199.734C94.2983 199.894 90.9739 199.816 87.6672 199.814L86.1965 199.816C84.9695 199.817 83.7398 199.811 82.5145 199.764L82.0552 199.744C81.1379 199.701 80.1731 199.688 79.2221 199.606C79.3433 200.582 79.4566 201.559 79.5575 202.536C79.6531 203.464 78.6961 204.252 77.8423 204.252C76.8285 204.252 76.2486 203.455 76.1272 202.536C75.5543 198.205 75.3198 193.833 74.7724 189.499C74.2821 185.618 73.857 181.727 73.4249 177.837L73.2805 176.541C71.6992 162.387 70.1639 148.228 68.6953 134.063L68.0116 127.44C67.321 120.766 66.6264 114.091 66.0406 107.407C65.7056 103.585 65.3969 99.7629 65.1063 95.9376C64.8932 93.1273 64.7594 90.3327 64.6722 87.5279C64.3286 87.1743 64.1563 86.658 64.3085 86.1248C64.3975 85.8137 64.501 85.5042 64.6103 85.1953C64.6035 84.8918 64.5963 84.5884 64.5904 84.2844C64.5849 83.9969 64.8769 83.8489 65.1106 83.8965C65.5353 82.8681 66.0031 81.8485 66.3934 80.8301C67.0252 79.1815 67.5459 77.4051 68.4385 75.8799ZM33.1545 93.6972C39.759 89.5583 47.6206 86.5799 55.4945 86.9006C55.6736 86.908 55.7239 87.1808 55.5381 87.2222C51.3381 88.1599 47.0919 89.3022 43.1157 90.9645C39.1279 92.6319 35.3362 94.8769 31.959 97.5749C25.728 102.553 20.8848 109.027 17.6958 116.326C15.8278 120.601 14.5185 125.115 13.3752 129.63C12.1653 134.409 11.1682 139.239 10.3391 144.098C8.70154 153.696 7.74817 163.4 7.24087 173.121C6.72474 183.009 6.93748 192.904 6.56937 202.794C6.50575 204.507 4.05659 204.474 3.93211 202.794C3.09807 191.55 3.56014 180.127 4.33148 168.891C5.02504 158.79 6.2362 148.71 8.18652 138.772L8.3564 137.911C10.1796 128.716 12.3788 119.298 16.7865 110.972C20.5496 103.863 26.3592 97.956 33.1545 93.6972ZM124.867 137.642C124.902 137.543 125.032 137.545 125.067 137.642C125.82 139.749 125.847 142.128 126.047 144.349L126.063 144.52C126.254 146.546 126.399 148.575 126.533 150.605L126.583 151.367C127.123 159.65 127.797 167.924 128.812 176.164C129.825 184.373 131.193 192.525 132.673 200.66C132.838 201.566 132.437 202.488 131.487 202.749C130.65 202.979 129.575 202.464 129.398 201.563C128.479 196.894 127.736 192.218 127.073 187.508C125.906 179.214 125.035 170.882 124.476 162.525C124.195 158.328 124.022 154.132 123.953 149.926C123.921 147.974 123.972 146.018 124.076 144.068L124.101 143.619C124.215 141.626 124.204 139.542 124.867 137.642ZM53.5021 190.402C53.5904 190.354 53.6996 190.453 53.6437 190.544C52.3649 192.622 50.6348 194.414 48.9627 196.18C47.2146 198.027 45.5098 199.929 43.7264 201.739C42.4379 203.046 40.3651 200.937 41.725 199.737C43.6371 198.051 45.6356 196.448 47.5816 194.799L48.4327 194.078C50.0283 192.73 51.6713 191.394 53.5021 190.402ZM114.242 189.361C114.147 189.18 114.365 189.032 114.513 189.152C115.545 189.991 116.469 190.992 117.465 191.877C118.452 192.754 119.475 193.572 120.526 194.369C121.582 195.17 122.66 195.939 123.768 196.667C124.687 197.27 125.634 197.754 126.596 198.255C127.041 198.312 127.454 198.531 127.784 198.945C128.306 199.601 128.362 200.837 127.638 201.407L127.508 201.509C126.662 202.173 125.659 202.254 124.827 201.509C123.898 200.677 123.02 199.761 122.128 198.882L121.859 198.62C120.901 197.688 119.965 196.726 119.084 195.721L118.285 194.812C116.804 193.124 115.263 191.303 114.242 189.361ZM109.491 91.9955C109.319 91.8818 109.425 91.5759 109.637 91.6489L110.025 91.7832C111.648 92.3472 113.319 92.9727 114.793 93.8412C116.376 94.7743 117.839 95.886 119.236 97.0786C122.127 99.5471 124.588 102.583 126.678 105.746C130.874 112.095 133.468 119.366 135.563 126.642C137.796 134.399 139.516 142.323 140.92 150.269C142.346 158.345 143.447 166.494 144.171 174.663C144.527 178.687 144.766 182.714 144.886 186.752C144.948 188.829 144.946 190.905 144.929 192.983C144.925 193.518 144.928 194.052 144.934 194.586L144.955 196.189C144.965 197.202 145.087 198.267 144.846 199.257C144.458 200.85 141.823 200.553 141.91 198.924C141.831 198.382 141.827 197.822 141.848 197.261C141.836 197.189 141.822 197.115 141.807 197.04C141.764 196.825 141.8 196.625 141.885 196.454C141.899 196.185 141.911 195.917 141.915 195.654C141.933 194.584 141.932 193.519 141.902 192.449C141.84 190.194 141.75 187.938 141.659 185.684C141.478 181.179 141.226 176.672 140.861 172.179C139.59 156.537 136.908 140.806 132.401 125.757C130.308 118.769 127.423 111.909 123.285 105.87C121.448 103.189 119.375 100.713 117.078 98.415C114.766 96.1024 112.218 93.8018 109.491 91.9955ZM78.3085 192.83L78.6207 195.089C78.7768 196.219 78.9314 197.349 79.0781 198.479C80.0749 198.343 81.0947 198.286 82.0552 198.201C83.7367 198.052 85.4298 197.98 87.1162 197.91C90.6037 197.766 94.1087 197.517 97.5996 197.534C97.6355 197.534 97.6693 197.537 97.7032 197.539L97.8764 193.083L95.4235 193.079C93.3454 193.075 91.2677 193.058 89.1896 193.04C87.318 193.024 85.4457 193.021 83.5744 192.982L82.7725 192.963C81.3534 192.925 79.7864 193.004 78.3085 192.83ZM98.0821 186.361C97.9821 186.373 97.8802 186.383 97.7719 186.387C97.2861 186.408 96.7965 186.394 96.3103 186.398C95.2751 186.407 94.2401 186.414 93.2048 186.414C91.1344 186.413 89.0642 186.426 86.9941 186.451C84.8631 186.477 82.7335 186.514 80.6022 186.518C79.5696 186.52 78.5403 186.492 77.5081 186.463C77.675 187.93 77.8495 189.396 78.0422 190.858C79.6452 190.642 81.3692 190.751 82.9359 190.736L83.1393 190.733C85.2775 190.697 87.4176 190.724 89.5564 190.726C91.7566 190.729 93.9566 190.736 96.157 190.754L97.9646 190.769L97.9681 190.678C98.0211 189.241 98.0553 187.801 98.0821 186.361ZM76.7128 179.343C76.9132 181.075 77.1013 182.809 77.2931 184.543C77.4205 184.524 77.5496 184.507 77.6811 184.493C78.7152 184.385 79.7471 184.292 80.7848 184.228C82.8536 184.1 84.9221 184.032 86.9941 183.976C89.1248 183.919 91.2559 183.876 93.3873 183.845C94.4229 183.831 95.4575 183.832 96.4931 183.84C96.9789 183.843 97.4696 183.828 97.9545 183.86C98.0122 183.864 98.0676 183.87 98.1224 183.876L98.1588 181.273C98.1651 180.839 98.1716 180.405 98.1786 179.972C96.5782 180.07 94.951 180.033 93.3517 180.033L92.9832 180.034C90.9737 180.043 88.9634 180.016 86.9543 179.974C84.8815 179.931 82.8129 179.863 80.7438 179.73C79.9055 179.677 79.0733 179.605 78.2397 179.513L77.8227 179.466C77.4599 179.423 77.0863 179.388 76.7128 179.343ZM98.3438 171.997C94.4893 172.303 90.6554 172.431 86.7906 172.469L86.2107 172.474C82.7955 172.5 79.3521 172.641 75.9288 172.55C76.1334 174.325 76.3375 176.099 76.5433 177.873C77.0335 177.851 77.5261 177.85 78.0053 177.833C78.9799 177.798 79.9513 177.789 80.9266 177.787C82.9358 177.782 84.9449 177.8 86.9543 177.796C89.025 177.791 91.0954 177.757 93.1658 177.718C94.8443 177.686 96.5407 177.56 98.2239 177.564L98.3438 171.997ZM98.5069 164.426C98.0602 164.575 97.5329 164.584 96.9548 164.611L95.4626 164.685C94.771 164.719 94.0794 164.751 93.3873 164.776C91.0814 164.861 88.7755 164.939 86.4692 165.013C84.1059 165.088 81.7312 165.131 79.3676 165.057C78.2097 165.02 77.0616 164.96 75.9073 164.863C75.6219 164.839 75.331 164.824 75.0396 164.803C75.3082 167.154 75.578 169.505 75.8486 171.856C79.2556 171.438 82.6888 171.177 86.0915 170.745L89.1683 170.352C92.2436 169.959 95.3164 169.574 98.403 169.25L98.5069 164.426ZM98.6711 156.772C98.0157 156.934 97.2688 156.926 96.6395 156.966L96.5229 156.974C95.3305 157.064 94.135 157.109 92.9398 157.139C90.5973 157.196 88.2533 157.225 85.91 157.24L84.501 157.248C82.6225 157.259 80.7452 157.264 78.8661 157.22C77.6609 157.192 76.4584 157.133 75.254 157.073C74.8932 157.055 74.5244 157.043 74.1544 157.024C74.4062 159.25 74.6605 161.476 74.9142 163.701C75.3099 163.638 75.7074 163.591 76.0864 163.527C77.057 163.363 78.0258 163.232 79.0035 163.114C81.1209 162.861 83.2494 162.678 85.3768 162.524C87.5608 162.366 89.7467 162.232 91.9311 162.079L93.4781 161.97C93.9938 161.934 94.5095 161.899 95.0255 161.868C95.9066 161.814 96.9307 161.875 97.8047 161.683C98.0413 161.584 98.3041 161.562 98.5672 161.618L98.6711 156.772ZM98.8695 147.813C98.6427 148.101 98.3041 148.251 97.9003 148.304C95.797 148.577 93.6395 148.62 91.5184 148.749L91.1445 148.773C88.9544 148.917 86.763 149.03 84.5713 149.147C82.3198 149.266 80.0687 149.364 77.8153 149.442C76.8587 149.475 75.8973 149.479 74.9392 149.467L74.5288 149.461C74.1353 149.454 73.7233 149.455 73.3103 149.442C73.5388 151.523 73.7696 153.604 74.0037 155.685C74.4247 155.639 74.8456 155.604 75.254 155.561C76.4576 155.434 77.6598 155.308 78.8661 155.213C81.152 155.033 83.4396 154.925 85.7297 154.811C88.0727 154.695 90.4171 154.618 92.7605 154.509C93.8967 154.455 95.0324 154.389 96.1653 154.285C96.9592 154.212 97.9023 153.942 98.7306 154.041C98.7759 151.965 98.8229 149.889 98.8695 147.813ZM99.0542 139.787C99.0184 139.842 98.9765 139.896 98.9255 139.946C97.9995 140.861 96.8582 140.79 95.6312 140.886L95.5559 140.892C94.3532 140.993 93.15 141.09 91.946 141.176C89.5393 141.35 87.1278 141.472 84.7176 141.58C82.251 141.691 79.7686 141.767 77.2996 141.717C75.7185 141.684 74.0625 141.69 72.4498 141.536C72.6975 143.828 72.9466 146.12 73.1976 148.412C73.651 148.327 74.1074 148.261 74.5397 148.193C75.6291 148.022 76.7196 147.85 77.8153 147.724C80.0049 147.471 82.1949 147.236 84.3887 147.023C86.2648 146.841 88.1403 146.656 90.0177 146.49L91.1445 146.393C93.3846 146.204 95.653 145.894 97.9003 145.848C98.2706 145.84 98.6894 146.042 98.9016 146.36C98.9513 144.169 99.0028 141.978 99.0542 139.787ZM99.2098 133.289C98.6378 133.359 98.0214 133.319 97.4935 133.336C96.1588 133.38 94.8239 133.42 93.489 133.46L85.4794 133.696C82.7524 133.777 80.0159 133.837 77.2878 133.798C76.0877 133.781 74.8824 133.779 73.6827 133.714L73.2831 133.69C72.7894 133.657 72.1835 133.652 71.5918 133.592L72.2904 140.062C73.8953 139.83 75.5492 139.744 77.1405 139.608L77.4805 139.578C79.8274 139.364 82.1856 139.222 84.5367 139.063C86.9485 138.9 89.3569 138.702 91.7654 138.499C92.9692 138.398 94.1728 138.297 95.3757 138.186L95.5243 138.172C96.6606 138.053 97.7291 137.801 98.7354 138.47C98.8827 138.568 98.998 138.699 99.0769 138.846C99.1208 136.994 99.1638 135.141 99.2098 133.289ZM99.3964 125.739C94.5185 125.935 89.6399 126.084 84.7583 126.149C82.0105 126.186 79.2662 126.16 76.5188 126.103C75.3275 126.078 74.1263 126.021 72.9359 125.93L72.49 125.894C71.9241 125.846 71.3295 125.812 70.7374 125.755C70.9821 127.979 71.2248 130.204 71.4657 132.429C72.0481 132.321 72.6568 132.271 73.1671 132.206L73.2831 132.19C74.5512 132.016 75.8314 131.914 77.1058 131.802C79.5873 131.583 82.0811 131.442 84.5693 131.323C87.1172 131.2 89.6664 131.096 92.2146 130.983L94.7631 130.869C95.1878 130.85 95.6125 130.831 96.0373 130.814C96.6442 130.788 97.251 130.764 97.8578 130.738C98.1571 130.726 98.4682 130.685 98.768 130.701L98.8532 130.689C98.8926 130.684 98.9273 130.68 98.9592 130.677C99.0407 130.615 99.1285 130.563 99.2214 130.524L99.2778 130.502L99.3964 125.739ZM69.9376 118.583C70.1641 120.586 70.388 122.589 70.609 124.592C71.3048 124.512 72.0089 124.469 72.6732 124.409C74.0127 124.289 75.3584 124.184 76.702 124.122L79.3872 123.997C81.1771 123.914 82.967 123.834 84.7583 123.769C89.6606 123.59 94.5628 123.385 99.4623 123.135C99.4968 121.776 99.5325 120.417 99.5689 119.059C99.3337 119.311 98.9939 119.476 98.5475 119.475C93.4039 119.462 88.2562 119.491 83.1132 119.407C80.5388 119.364 77.9674 119.302 75.3959 119.17C74.1377 119.105 72.8725 118.974 71.6238 118.801C71.0913 118.727 70.5087 118.674 69.9376 118.583ZM69.1144 111.447C69.3561 113.498 69.5933 115.55 69.8267 117.603C70.4654 117.489 71.1254 117.428 71.7213 117.347C73.0018 117.173 74.2901 117.034 75.5798 116.961C78.0893 116.819 80.6002 116.748 83.1132 116.695C88.2559 116.585 93.4037 116.586 98.5475 116.546C99.0307 116.542 99.3894 116.733 99.625 117.018C99.6607 115.737 99.6983 114.456 99.7371 113.175C99.2403 113.123 98.7477 113.048 98.2919 113.016C96.891 112.919 95.4895 112.829 94.0875 112.749C91.1618 112.581 88.2333 112.438 85.3055 112.31C82.377 112.183 79.4475 112.059 76.5181 111.95L75.2369 111.903C73.1998 111.827 71.128 111.732 69.1144 111.447ZM68.1932 103.721C68.4449 105.799 68.6927 107.877 68.94 109.955L69.0153 110.598C71.4653 110.122 74.0474 109.983 76.5181 109.878C79.4481 109.753 82.3729 109.689 85.3055 109.698C88.2351 109.707 91.1603 109.776 94.0875 109.897C95.5502 109.957 97.0127 110.027 98.4745 110.107C98.8764 110.128 99.3477 110.117 99.8328 110.124C99.8432 109.797 99.8522 109.471 99.8635 109.144C99.908 107.821 99.9515 106.499 99.997 105.176C99.0082 105.684 97.7227 105.889 96.7291 106.105L96.6157 106.13C94.9751 106.499 93.2998 106.737 91.6251 106.883C88.3364 107.17 85.0135 107.063 81.7279 106.785L81.1524 106.736C78.2671 106.486 75.276 106.169 72.479 105.455C71.1467 105.115 69.7693 104.639 68.5754 103.949C68.4513 103.878 68.3232 103.802 68.1932 103.721ZM95.9737 79.032C96.0022 78.9197 96.1705 78.8941 96.2258 78.9991C96.6143 79.7372 96.7589 80.6231 97.0286 81.4139C97.3189 82.2641 97.5898 83.1206 97.9101 83.9605C98.5792 85.7154 99.3686 87.4016 100.31 89.0272C101.242 90.6369 98.632 91.7859 97.9461 90.0236C97.238 88.2052 96.6561 86.3249 96.304 84.4033C96.132 83.4657 95.9789 82.5153 95.9293 81.5626C95.8864 80.7444 95.7713 79.8302 95.9737 79.032Z" fill="black"/>
<path fill-rule="evenodd" clip-rule="evenodd" d="M111.239 26.5765C104.784 9.55794 93.1476 -2.90243 73.5311 4.92385C72.9683 4.53993 72.234 4.43696 71.5304 4.88652C60.8445 11.6105 53.1494 22.3907 49.8146 34.5466C47.7851 34.9332 45.813 35.6077 44.0516 36.7137C40.2234 39.1174 37.6479 42.9423 35.2336 46.6675C34.5076 47.7875 35.1798 49.6416 36.5442 49.8959C37.1369 50.0066 37.7242 50.0724 38.3082 50.0897C38.166 50.6069 37.9789 51.1067 37.7405 51.5651C36.8776 53.2243 38.5079 54.986 40.0357 54.5324C40.2053 54.6223 40.3829 54.6962 40.5669 54.7518C40.5878 55.6917 41.0698 56.9499 42.0238 57.1399C43.5665 57.4716 45.6167 56.2884 45.2527 54.5592C45.7187 54.6414 46.1831 54.6517 46.6358 54.5947C46.6864 55.4951 46.6706 56.4347 46.7947 57.2653C47.2002 61.1795 51.1029 63.8089 54.8246 62.6181C55.0529 63.8377 55.3209 65.5514 56.5196 66.213C57.9211 70.1528 60.341 74.649 64.3046 76.4441C63.9518 77.35 64.1432 78.4522 65.2059 79.0584C72.461 83.2034 81.1691 84.6059 89.3715 83.0649C92.6496 82.8693 95.8435 82.127 98.9092 80.5455C101.145 79.3923 103.2 77.9278 105.206 76.418C107.213 74.9077 109.36 73.4371 110.962 71.4761C112.702 69.3463 113.512 66.8405 114.038 64.1735C116.447 52.0676 115.615 40.1809 111.239 28.6489C105.822 14.3741 116.653 40.8521 111.239 26.5765Z" fill="#694D3D"/>
<path fill-rule="evenodd" clip-rule="evenodd" d="M44.0326 36.0176C50.058 32.4559 57.7422 33.3778 61.3622 38.8949C61.9871 39.8473 62.4186 40.8951 62.7234 42.108L62.7726 42.3096L62.8217 42.5217C62.9796 43.223 63.083 43.8829 63.2233 45.0048L63.3787 46.2779L63.4231 46.6248C63.5739 47.7771 63.7062 48.5049 63.9123 49.2469L63.9532 49.3907L64.1913 50.2124L63.2925 50.5452C61.5704 51.1685 61.2098 51.2242 60.2161 50.7037C59.4401 50.2972 59.035 49.75 58.4959 48.641L58.418 48.4788L58.246 48.117L58.1527 47.9264C57.8014 47.2236 57.5202 46.4742 57.1228 46.2021C56.5831 45.8325 54.882 45.6853 53.6989 45.831L53.6373 45.8388L53.5863 45.8495L53.4987 45.8692C51.5092 46.3405 49.6959 47.9499 48.4998 49.6506C47.5368 51.0201 46.9834 52.7451 46.9156 54.5376L46.9118 54.6572L46.8882 55.5721L44.9597 55.531L44.9786 55.1749L44.9497 55.2382C44.3421 56.5218 42.8156 57.3766 41.5384 56.5268L41.4929 56.4958L41.4465 56.4624C40.3683 55.6672 40.2385 54.0572 41.1234 53.0795L41.1644 53.0355L41.2041 52.9949L41.196 52.9911L41.1868 52.988L41.1811 52.9874C40.8797 53.0429 40.6149 53.1979 40.2566 53.5277L40.1645 53.6142L39.9794 53.8148L39.788 54.0196L39.7057 54.1042C39.6531 54.1574 39.6049 54.2041 39.5596 54.2455C39.4984 54.3013 39.4418 54.3483 39.3801 54.391C39.3231 54.4306 39.2642 54.4652 39.193 54.4961C39.0173 54.5725 38.8295 54.6087 38.5892 54.5495C38.2595 54.4685 38.0737 54.2688 37.9612 54.0336C37.9175 53.9422 37.8925 53.8581 37.8748 53.7693C37.8563 53.6766 37.8472 53.5819 37.8424 53.4727C37.8393 53.4014 37.8382 53.3234 37.8388 53.2382L37.841 53.1048L37.8456 52.9599L37.8504 52.8443L37.8723 52.4154C37.9504 51.0076 38.3196 49.6248 38.9518 48.3196L39.0159 48.1893L39.0398 48.142L38.9737 48.2308C38.5425 48.8002 38.1262 49.1949 37.6066 49.4556L37.5351 49.4903L37.4652 49.5221C36.7443 49.8394 36.0182 49.7162 35.5795 49.1279C35.276 48.7209 35.1865 48.1851 35.2487 47.6214C35.3694 46.5279 35.8009 45.5267 36.6459 44.0658L36.7643 43.8625L37.2281 43.0743C39.0155 40.06 41.3129 37.6249 44.0326 36.0176Z" fill="#E8E1E1"/>
<path fill-rule="evenodd" clip-rule="evenodd" d="M80.0315 1.60752C83.3351 1.37382 86.6989 1.93187 89.8449 2.9301C94.8624 4.52169 99.4704 7.3305 103.256 10.9871C107.158 14.7556 110.044 19.4018 111.798 24.5335C113.914 30.7222 114.231 37.3301 114.826 43.7905C115.127 47.0545 115.623 50.2687 116.139 53.5011L116.22 54.0116C116.724 57.161 117.007 60.3462 116.311 63.4906C115.155 68.7165 111.689 73.1526 107.574 76.4305C99.1215 83.1642 85.9632 87.2695 76.1217 81.0732C74.5991 80.1145 76.0419 77.663 77.5283 78.6619C78.5743 79.3652 79.6825 79.9818 80.8709 80.4074C85.8364 82.1856 91.2897 81.5522 96.1971 79.8981C101.033 78.2681 105.674 75.5139 109.242 71.8387C112.99 67.9783 115.067 63.21 114.767 57.7843C114.588 54.5561 113.854 51.3876 113.447 48.1857C113.086 45.3498 112.87 42.4985 112.621 39.6511L112.529 38.627C112 32.8257 111.241 26.8653 108.607 21.5994C106.392 17.1692 103.147 13.228 99.2466 10.1842C95.1626 6.99751 90.2847 4.76881 85.1667 3.93753C79.148 2.96008 73.3867 4.73756 68.366 8.0465C63.9133 10.9811 60.0851 14.9027 57.1497 19.3524C55.7263 21.5099 54.5136 23.814 53.4665 26.1769C52.4797 28.4032 51.7994 30.7365 51.0058 33.0312C51.6588 33.0118 52.3226 33.0369 52.9968 33.1116C56.4543 33.4955 59.6757 35.2912 61.7265 38.1226C64.2327 41.5825 63.5553 45.8296 64.5342 49.7644C64.61 50.0698 64.4811 50.3688 64.2201 50.5378C62.7359 51.4991 60.7495 51.531 59.313 50.4486C58.0662 49.5092 57.4809 47.8108 57.9857 46.3268C58.0515 46.1333 58.3326 46.1675 58.3405 46.3749C58.4354 48.9004 60.7735 50.8452 63.0654 49.6434C62.0823 46.2505 62.5997 42.4611 60.5889 39.3963C57.0299 33.9721 49.6649 33.748 44.492 36.8057C41.7695 38.4147 39.6147 40.8341 38.0101 43.5403L37.5478 44.3259C36.9327 45.3755 36.2814 46.5629 36.1538 47.7188C36.0802 48.3859 36.3259 49.0127 37.0895 48.6766C37.7073 48.4049 38.1857 47.7707 38.5526 47.2255C39.1785 46.2957 40.6166 47.099 40.0997 48.0892L40.0821 48.1215C39.3298 49.4572 38.8666 50.9291 38.7815 52.4628L38.7599 52.8874C38.7457 53.197 38.7355 53.6369 38.8009 53.6529C38.8792 53.6722 39.4236 53.0425 39.5143 52.9553C39.9509 52.535 40.4007 52.1915 41.0085 52.0795C41.8076 51.9328 42.6139 52.9235 41.9202 53.5731L41.8913 53.5992C41.2722 54.1385 41.2997 55.214 41.9836 55.7183C42.9487 56.4301 44.1369 55.2683 44.277 54.3118L44.2817 54.2764C44.4055 53.2429 45.838 53.2063 45.9158 54.2764C46.0848 56.5987 43.3257 58.5452 41.2265 57.3735C40.3964 56.9106 39.8687 56.0627 39.7034 55.154C39.4385 55.2943 39.1526 55.3916 38.8504 55.4184C37.8666 55.5058 37.1671 54.8126 37.0081 53.8822C36.8227 52.7983 36.9326 51.6377 37.2176 50.512C36.6833 50.6411 36.1213 50.5918 35.5563 50.2651C33.8472 49.2768 34.338 47.0784 34.9833 45.5942C37.7383 39.2591 43.4461 33.5108 50.5175 33.0544C50.5563 31.9367 50.7074 30.88 50.9548 29.7607C53.3735 18.8132 61.2089 8.67607 71.4097 3.93808C74.1355 2.67195 77.0262 1.82026 80.0315 1.60752ZM53.2809 45.3386L53.3778 45.3167C54.4799 45.0788 57.3801 44.7992 57.0305 46.6577C57.014 46.745 56.8872 46.7344 56.8647 46.6577C56.5223 45.4892 54.1965 46.4236 53.5174 46.705C52.5812 47.0926 51.6578 47.6644 50.8934 48.3291C49.2198 49.7846 48.098 51.8359 47.9274 54.0636C47.7582 56.2736 48.398 58.6606 49.9888 60.2592C50.7686 61.0426 51.764 61.5746 52.8822 61.6138C53.8867 61.6487 54.9966 60.865 55.9236 61.324C56.1063 61.4144 56.2511 61.6628 56.2346 61.8673C56.2034 62.2544 56.0305 62.5557 55.7733 62.7894C57.3252 65.6234 58.5953 68.6231 60.5749 71.2002C61.5682 72.4932 62.6939 73.6906 63.9686 74.7096C64.5744 75.1941 65.2331 75.6196 65.9124 75.9934C66.7083 76.4319 67.3971 76.7062 67.9652 77.4491C68.4496 78.0825 67.965 79.3073 67.1665 79.4165C65.286 79.6732 63.4585 78.1496 62.078 77.0083C60.6987 75.868 59.5066 74.4614 58.5215 72.9689C56.6298 70.1029 55.3357 66.7219 54.8183 63.3013C54.2176 63.4922 53.5412 63.5505 53.0324 63.5516C51.6787 63.5547 50.3861 63.0667 49.3222 62.242C45.4276 59.2234 44.9948 53.0257 47.7432 49.1173C49.0584 47.2472 51.0569 45.8654 53.2809 45.3386ZM53.3053 52.5269C54.2084 52.4474 55.1107 52.5903 55.9595 52.8988L56.3094 53.0259C57.0486 53.2968 57.8354 53.6152 58.3692 54.1705C59.1848 55.0192 58.3727 56.4898 57.2109 56.1646C55.9263 55.8049 54.8823 54.7208 53.5981 54.2661C52.4502 53.8597 51.1501 53.9173 50.1314 54.6171C49.9969 54.7096 49.82 54.5272 49.9079 54.393C50.6872 53.2039 51.9174 52.6488 53.3053 52.5269Z" fill="black"/>
<path fill-rule="evenodd" clip-rule="evenodd" d="M97.9879 66.1581C98.2699 65.6677 98.9194 65.2133 99.5136 65.283C102.176 65.5952 102.171 68.8229 101.143 70.7072C100.232 72.378 98.3455 73.3588 96.4575 73.2156C94.4741 73.065 92.7841 71.8989 92.0404 70.0434C91.5485 68.8161 91.3213 66.5502 92.6297 65.7256C92.654 65.7101 92.694 65.714 92.7134 65.7363C93.3407 66.466 93.3654 67.5617 93.9146 68.3742C94.4254 69.13 95.219 69.754 96.1486 69.8504C96.8429 69.9224 97.5453 69.672 97.8169 69.0487C97.9638 68.7115 97.9471 68.5285 97.8918 68.2964L97.8417 68.0948C97.6678 67.3884 97.5897 66.8506 97.9879 66.1581ZM98.6995 52.0028C100.088 52.8468 102.204 54.8147 100.71 56.9071C98.9518 58.7519 96.4203 56.6367 95.1729 55.68C94.0162 54.9386 92.7166 56.8455 93.7898 57.7112C102.804 64.3848 106.462 52.2235 99.4018 51.0105C98.6245 50.8768 98.3358 51.7417 98.6995 52.0028ZM84.0372 46.2155C84.8894 44.9369 86.8348 45.1252 87.3042 46.6425C87.5585 47.4644 87.2073 48.2032 87.2255 49.024C87.2408 49.7173 87.1953 50.49 86.9828 51.1615C86.4981 52.6927 85.1209 53.7743 83.4916 53.7294C81.8677 53.6847 80.4373 52.6569 79.7572 51.2093C79.0747 49.7561 79.2192 48.2523 79.7175 46.7747C79.7414 46.7037 79.8344 46.6693 79.8905 46.7291C80.4795 47.355 80.9107 48.0158 81.3569 48.7168L81.8141 49.4351C82.1635 49.9761 82.6713 50.6671 83.3237 50.6237L83.4216 50.6141C83.603 50.5985 83.5752 50.6345 83.715 50.3874C83.7798 50.273 83.768 50.0604 83.7992 49.9255L83.8101 49.8799L83.8042 49.8553C83.7904 49.79 83.7767 49.6668 83.7655 49.4531L83.7632 49.4059C83.7159 48.4062 83.4333 47.1215 84.0372 46.2155ZM105.64 47.0668C105.488 45.4314 107.787 45.0683 108.551 46.2783C108.95 46.9093 109.066 47.702 109.154 48.453L109.195 48.8095C109.286 49.5808 109.322 50.3832 108.987 51.1027C108.459 52.2359 107.313 52.835 106.076 52.7401C104.894 52.6493 103.816 51.9643 103.248 50.9245C102.742 49.9967 102.238 48.1852 102.853 47.2175C102.89 47.1589 102.965 47.1513 103.016 47.1966C103.597 47.7127 103.692 48.6541 104.037 49.3265C104.394 50.0201 104.935 50.696 105.754 50.8014C106.538 50.9021 106.838 50.4739 106.638 49.7264C106.38 48.7615 105.738 48.1051 105.64 47.0668ZM84.6582 36.493L85.0342 36.349C86.3224 35.8624 88.091 35.2999 89.1384 36.3474C89.7845 36.9933 89.9075 37.9449 89.4464 38.7331C88.8876 39.688 87.8853 39.7115 86.9174 39.8522C85.8166 40.0121 84.697 40.3163 83.6721 40.7498C82.5176 41.2384 81.4461 41.8474 80.3964 42.5275C79.3987 43.1738 78.4045 44.2301 77.2103 44.4293C77.1616 44.4374 77.1062 44.4164 77.0935 44.3629C76.8223 43.1953 77.576 42.0463 78.2486 41.1354C79.0624 40.0326 80.0485 39.1274 81.1507 38.3157C82.2143 37.5323 83.4297 36.9661 84.6582 36.493ZM108.059 40.6442L108.174 40.6241C108.955 40.494 109.663 40.524 110.252 41.1427C110.701 41.6147 110.874 42.2264 110.66 42.8505C110.462 43.4262 110.02 44.0111 109.379 44.1317C107.213 44.5392 104.814 44.4719 102.637 44.1633C101.641 44.0221 100.637 43.8493 99.6666 43.5768L99.2203 43.4474C98.4105 43.2161 97.4834 42.9744 96.8952 42.3789C96.6838 42.1648 96.8057 41.8585 97.0587 41.7594C98.085 41.3575 99.4918 41.5713 100.586 41.5399C101.859 41.5034 103.134 41.408 104.402 41.2765C105.64 41.1478 106.838 40.8682 108.059 40.6442Z" fill="black"/>
<path fill-rule="evenodd" clip-rule="evenodd" d="M120.051 38.0036C119.899 37.9784 119.748 37.9547 119.596 37.9324C119.478 37.8653 119.339 37.8137 119.178 37.7826C118.809 37.689 118.443 37.6259 118.078 37.5919C112.831 36.4113 100.695 38.0876 100.194 42.5645C98.5231 43.1222 97.0775 42.6228 95.1411 42.6724C93.6672 36.5119 68.1859 37.3814 66.9604 41.0956C66.9558 41.0943 66.9512 41.0932 66.9464 41.0917C65.7689 40.7273 64.0329 40.8152 62.6852 40.7574C59.8074 40.6971 56.9263 40.9536 54.1107 41.5606C48.8382 42.3985 41.6424 43.3794 45.3094 49.9635C45.3101 49.9646 45.3107 49.9659 45.3116 49.967L45.3121 49.9664C45.9441 50.6142 47.0166 50.0926 47.0565 49.2157C45.8237 46.0965 48.6082 45.7219 50.7507 44.8256C56.0816 42.9104 61.5091 42.6449 67.0227 43.2373C67.4375 43.7257 68.0669 44.1515 68.7321 44.3744C72.4186 44.9863 70.4758 47.7208 72.806 48.1185C72.3779 57.6508 83.9509 62.8539 90.6565 56.5878C93.3339 53.9702 93.9721 50.0926 94.5928 46.5974C94.9211 46.5236 95.1297 46.3442 95.2516 46.1066C96.041 45.3185 96.5369 44.5908 98.0978 44.3744C99.6587 44.1581 100.86 44.5922 101.023 44.7252C101.064 44.8077 101.108 44.8905 101.159 44.9732C101.23 45.0966 101.327 45.195 101.438 45.2724C99.8962 54.7645 107.265 60.7676 114.704 55.8444C117.937 52.8037 118.62 48.1485 118.755 43.9934C119.193 43.729 119.471 43.2165 119.319 42.5722C119.11 41.6841 119.6 40.9152 120.381 40.5291C121.395 40.0276 121.216 38.1965 120.051 38.0036ZM88.0852 42.5068C87.1618 42.3037 86.7674 43.7274 87.6938 43.931C88.3497 44.0752 88.9057 44.406 89.2813 44.9664L89.3208 45.0274C89.8248 45.8294 91.0993 45.089 90.5918 44.2818C90.0208 43.3734 89.1335 42.7372 88.0852 42.5068ZM115.13 41.6241C114.805 41.3948 114.312 41.565 114.123 41.889C113.915 42.2458 114.051 42.6431 114.356 42.8765L114.387 42.8993C114.667 43.0964 114.939 43.4497 114.973 43.8117L114.976 43.857C115.013 44.8043 116.485 44.8091 116.449 43.857C116.413 42.9255 115.873 42.1473 115.13 41.6241Z" fill="black"/>
</svg>
