<svg width="33" height="35" viewBox="0 0 33 35" fill="none" xmlns="http://www.w3.org/2000/svg">
<g clip-path="url(#clip0_1_67)">
<g clip-path="url(#clip1_1_67)">
<g clip-path="url(#clip2_1_67)">
<path d="M4.6024 7.40431C6.64803 4.26146 9.65182 1.40782 13.119 0.69061C16.5864 -0.0467169 20.5172 1.35239 24.1227 3.4129C27.7281 5.47343 30.9681 8.21519 31.6827 11.4803C32.3774 14.7453 30.5066 18.5535 28.897 22.223C27.2674 25.8922 25.8989 29.4428 23.2206 31.6149C20.5425 33.7669 16.5346 34.5402 12.617 34.0064C8.67927 33.4925 4.83183 31.6716 2.79427 28.6979C0.756864 25.704 0.529342 21.5574 0.97924 17.7781C1.4293 13.9789 2.55677 10.5471 4.6024 7.40431Z" fill="#FFDBB4"/>
</g>
</g>
</g>
<defs>
<clipPath id="clip0_1_67">
<rect width="32" height="33.88" fill="white" transform="translate(0.68 0.380005)"/>
</clipPath>
<clipPath id="clip1_1_67">
<rect width="32" height="33.88" fill="white" transform="translate(0.68 0.380005)"/>
</clipPath>
<clipPath id="clip2_1_67">
<rect width="31.9978" height="33.88" fill="white" transform="translate(0.681114 0.380005)"/>
</clipPath>
</defs>
</svg>
