<svg width="149" height="218" viewBox="0 0 149 218" fill="none" xmlns="http://www.w3.org/2000/svg">
<g id="621f2ab5ba2a9f108dc61ff5_hero_nft_rotated.svg">
<path id="Vector" fill-rule="evenodd" clip-rule="evenodd" d="M20.1356 129.114C22.6286 117.304 31.4697 108.139 43.3604 103.574C45.6459 102.281 47.8614 96.7339 50.9332 95.7182C51.4257 95.5553 50.6485 96.851 50.9332 96.9283C51.9489 97.2044 53.0874 97.2333 54.209 96.2366C56.2136 94.4549 56.8427 89.2497 58.0615 86.8968C64.4894 74.4894 80.5384 79.3443 82.6882 93.0603C84.1874 94.0375 86.307 94.8982 87.9388 95.6858C89.619 96.4967 91.0975 98.4603 92.8291 99.1628C94.3741 99.7893 96.9201 99.3452 98.4771 99.8913C105.638 102.404 111.704 105.573 116.459 111.995C117.461 113.35 118.59 115.015 119.502 116.384C124.203 121.795 127.468 127.86 130.475 134.367C138.888 153.467 141.177 174.615 143.23 195.195C143.183 198.795 145.572 208.78 142.039 210.506C142.25 210.725 142.173 211.165 141.781 211.161C132.821 211.07 123.881 211.872 115.06 213.431C110.803 214.184 106.57 215.215 102.235 215.385C93.2348 215.323 84.2673 213.814 75.2796 215.241C64.4747 215.241 51.3437 214.927 39.3234 214.465C28.0894 214.033 16.795 215.008 5.70014 213.098C4.82192 212.959 4.39304 211.887 4.57713 211.12C5.87883 206.377 6.51782 201.495 7.24823 196.641C7.10276 193.527 7.36302 190.276 8.51493 187.376C11.5246 167.797 15.3839 148.345 20.1356 129.114Z" fill="#FFDBB4"/>
<path id="Vector_2" fill-rule="evenodd" clip-rule="evenodd" d="M50.9332 97.0005C50.6485 96.9227 51.4257 95.627 50.9332 95.7899C47.8614 96.8056 45.6459 102.353 43.3604 103.645C31.4697 108.211 22.6286 117.376 20.1356 129.186C15.3839 148.417 11.5246 167.869 8.51493 187.448C7.36302 190.348 7.10276 193.599 7.24823 196.712L7.13356 197.479C6.44874 202.081 5.81035 206.698 4.57713 211.192C4.39306 211.96 4.82192 213.031 5.70014 213.169C16.669 215.058 27.8327 214.126 38.9404 214.522L41.2556 214.609C52.7379 215.031 65.051 215.314 75.2796 215.314C84.2673 213.886 93.2348 215.394 102.235 215.457C106.57 215.287 110.803 214.256 115.06 213.503C123.881 211.944 132.821 211.142 141.781 211.233C142.173 211.236 142.25 210.797 142.039 210.578C145.572 208.852 143.183 198.867 143.23 195.266L143.044 193.413C141.034 173.42 138.636 152.966 130.475 134.439L130.23 133.912C127.29 127.605 124.076 121.721 119.502 116.455L119.222 116.037C118.366 114.757 117.36 113.286 116.459 112.067C111.704 105.645 105.638 102.475 98.4772 99.9634C96.9201 99.4169 94.3741 99.861 92.8291 99.2346C91.2094 98.5779 89.8117 96.8173 88.2624 95.9286V102.556L65.849 124.635L53.1366 105.142L51.8435 97.159C51.532 97.1396 51.2274 97.0804 50.9332 97.0005Z" fill="#8FA7DF"/>
<path id="Vector_3" fill-rule="evenodd" clip-rule="evenodd" d="M23.7612 154.849C23.9982 156.001 24.3305 157.152 24.7723 158.242C25.1979 159.295 25.8391 160.237 26.2807 161.277C26.34 161.417 26.437 161.523 26.5539 161.604L26.5174 161.887L26.4838 162.17C26.2635 164.079 26.0158 165.982 25.8013 167.891L25.697 168.845C25.2752 172.831 24.6088 176.796 24.0916 180.771C23.5852 184.662 23.0696 188.554 22.5184 192.44C21.9491 196.447 21.369 200.449 20.6919 204.439C20.406 206.124 20.1077 207.809 19.7969 209.491L19.5569 210.779C17.0856 211.373 16.4103 214.818 18.9265 216.09C20.0685 216.664 21.5358 216.526 22.4771 215.623C23.4552 214.681 23.4958 212.984 23.7228 211.709L23.9415 210.524C25.5778 201.616 26.998 192.605 27.662 183.57C27.8326 181.238 27.9762 178.903 28.0697 176.566C28.1584 174.368 28.116 172.171 28.1499 169.973L28.1612 169.373C28.2131 167.03 28.1702 164.69 28.1092 162.346C28.102 162.06 28.0894 161.775 28.075 161.487C28.1575 161.391 28.2169 161.276 28.2419 161.164L28.2744 161.017C28.3552 160.638 28.2636 160.194 27.9725 159.923C27.847 158.327 27.6817 156.732 27.6368 155.137C27.6332 155.006 27.4447 155.01 27.4337 155.137C27.3278 156.495 27.116 157.856 26.9041 159.216C25.541 158.12 24.5334 156.313 23.939 154.801C23.8959 154.691 23.7359 154.731 23.7612 154.849ZM56.0127 91.377C55.7868 92.4113 55.3392 93.3402 54.7395 94.2039C54.4539 94.6169 54.129 95.0014 53.7393 95.3229C53.4049 95.5976 53.0243 95.7769 52.6687 96.0163C52.1516 95.9351 51.6111 96.1312 51.2482 96.5118L51.3056 95.9549C51.3238 95.7756 51.0252 95.7398 50.9911 95.9135C49.4198 103.838 47.9871 111.767 46.7467 119.748L46.2028 123.273L45.6913 126.582C44.8419 132.096 44.0201 137.607 43.4015 143.161C42.5772 150.574 41.8841 158.005 41.3777 165.447C40.8694 172.942 40.5568 180.442 40.334 187.951C40.2785 189.844 40.2191 191.735 40.1618 193.628L39.7782 191.365C39.3953 189.101 39.0199 186.836 38.6981 184.562C37.5433 176.424 36.62 168.229 36.1694 160.022C35.7562 152.511 35.8944 144.852 37.8053 137.535C38.2868 135.694 38.8759 133.882 39.5869 132.116C40.2767 130.399 41.2176 128.808 41.9595 127.117C42.8216 125.148 43.0802 123.291 42.6364 121.172C42.2485 119.326 41.5679 117.589 41.4459 115.689C41.2177 112.162 42.3655 108.746 43.987 105.659C44.4146 104.845 44.8652 104.042 45.3361 103.246C46.7601 100.842 48.3656 98.5247 50.032 96.3036C50.1218 96.1848 49.9317 96.0539 49.8345 96.1506C48.3155 97.6524 46.6543 99.1287 45.2873 100.768C44.6228 101.565 43.9746 102.379 43.3604 103.215C36.6218 104.34 30.8316 108.537 26.8736 114.08C22.3819 120.369 20.11 127.939 18.4288 135.394C16.5593 143.679 14.9824 152.039 13.3032 160.365C11.5649 168.98 9.83541 177.596 8.08617 186.209C7.21695 190.485 6.34751 194.761 5.48027 199.039C5.04023 201.205 4.5785 203.365 4.09558 205.524C3.84756 206.63 3.58175 207.735 3.35187 208.845C3.09344 210.097 3.33409 210.897 4.1816 211.817C4.49428 212.158 4.98817 212.153 5.37611 211.972L5.49734 211.914L5.61455 211.858C6.09459 211.622 6.4709 211.378 6.76957 210.852C7.09839 210.276 7.1505 209.637 7.26343 208.996C7.47194 207.815 7.67832 206.636 7.88665 205.454C8.19794 203.687 8.5364 201.925 8.88086 200.163L10.6092 191.359C11.0701 189.011 11.5317 186.664 11.996 184.318C13.6536 175.927 15.3131 167.538 16.9723 159.149C18.5655 151.094 19.9753 142.984 21.7891 134.976L21.8922 134.525L21.9971 134.074C23.6189 127.17 25.885 120.492 29.9967 114.642C33.1612 110.143 37.5557 106.126 42.7318 104.092C42.3671 104.617 42.0168 105.152 41.6828 105.698C39.5851 109.125 38.0533 113.193 38.4125 117.273C38.5884 119.267 39.3463 121.226 39.2746 123.236C39.2082 125.021 38.1035 126.589 37.3402 128.142C35.6073 131.662 34.3535 135.403 33.5453 139.241C31.9236 146.947 31.929 154.877 32.4877 162.7C33.0948 171.203 34.2476 179.706 35.5604 188.127C36.2339 192.446 37.1301 196.729 37.8163 201.042C38.1556 203.168 38.6173 205.289 39.0214 207.405L39.214 208.415C39.3218 208.976 39.4337 209.535 39.5629 210.088L39.6426 210.42V210.479C39.6462 210.887 39.7577 211.224 39.9373 211.494C40.1832 212.282 40.4885 213.051 40.8944 213.789C41.1027 214.166 41.4046 214.378 41.7332 214.456C42.0637 215.212 42.8126 215.793 43.7068 215.79L55.4688 215.745C62.3006 215.718 69.1321 215.673 75.9639 215.635C77.6878 215.626 79.4103 215.594 81.1324 215.549C82.747 215.504 84.2954 215.31 85.8918 215.109C87.6951 214.883 88.672 213.606 88.4024 211.805C88.3432 211.407 88.2788 211.013 88.2175 210.617C88.5769 210.736 89.0042 210.68 89.2932 210.398L89.5646 210.133C89.9404 209.761 90.2761 209.396 90.5146 208.9C90.7605 208.391 90.9601 207.852 91.1774 207.331C91.6461 206.21 92.1024 205.086 92.5461 203.956C93.4348 201.697 94.3239 199.429 95.15 197.146C96.7861 192.625 98.2339 188.037 99.4924 183.396C101.737 175.117 103.361 166.678 104.385 158.163L104.63 156.134L104.701 155.534C105.089 152.234 105.416 148.883 105.261 145.59C105.166 143.528 104.846 141.45 104.076 139.525C103.365 137.748 102.267 136.229 101.224 134.642L101.105 134.458L100.985 134.27C100.072 132.829 99.346 131.321 99.3097 129.57C99.2725 127.793 99.7905 126.063 100.369 124.4L100.514 123.989L100.611 123.717C101.842 120.279 103.243 116.889 102.781 113.148C102.099 107.638 98.7584 103.196 94.5555 99.7716C98.2931 100.511 101.993 101.973 105.258 103.827C109.114 106.018 112.585 108.909 115.579 112.172C121.236 118.339 125.275 125.739 128.582 133.379C132.042 141.375 134.609 149.753 136.543 158.241C138.488 166.776 139.79 175.449 140.679 184.156C141.123 188.489 141.471 192.834 141.76 197.18C141.908 199.407 142.019 201.638 142.191 203.861C142.364 206.083 142.441 208.338 142.983 210.501C143.237 211.508 144.944 211.611 145.128 210.501C145.534 208.022 145.42 205.459 145.307 202.949L145.297 202.72C145.185 200.221 145.039 197.723 144.868 195.225C144.515 190.119 144.045 185.02 143.431 179.937C141.277 162.096 137.306 144.349 129.517 128.063C125.85 120.392 121.143 112.939 114.595 107.401C111.477 104.766 107.963 102.663 104.175 101.14C100.787 99.7768 97.3465 99.1322 93.7472 99.1339C91.9425 97.7509 90.0044 96.546 88.0688 95.5168C87.9522 95.4542 87.8299 95.605 87.9267 95.7018C87.9768 95.7501 88.0256 95.8003 88.0758 95.8474C87.8567 95.8616 87.6303 95.964 87.4277 96.1779C86.7161 96.9231 86.1164 97.8551 85.5794 98.8228C84.7624 99.8433 83.983 100.897 83.1673 101.907C81.8617 103.523 80.5258 105.116 79.1731 106.696C76.9019 109.353 74.5563 111.958 72.1105 114.459L71.7023 114.875C70.4342 116.159 69.1502 117.697 67.6506 118.713L67.5707 118.766C66.9377 119.178 66.4893 119.254 65.9496 118.638C65.4593 118.078 65.051 117.427 64.6315 116.81L64.5343 116.668C62.3918 113.555 60.4057 110.328 58.608 107.006C57.7884 105.494 57.009 103.959 56.2693 102.409L56.0486 101.943C55.6463 101.088 55.21 100.249 54.8777 99.3689C54.8004 99.1628 54.7252 98.9563 54.6514 98.7515C55.7829 98.0097 56.659 96.4043 56.977 95.147C57.3075 93.8414 57.1403 92.5012 56.5515 91.307C56.4404 91.0828 56.0667 91.1381 56.0127 91.377ZM111.829 144.435C111.985 149.399 112.08 154.368 112.314 159.329L112.394 161.022C112.03 161.428 111.816 161.897 111.987 162.54C112.054 162.786 112.249 163.009 112.493 163.091L112.57 164.666C112.916 171.75 113.322 178.819 114.065 185.886C114.994 194.729 116.068 203.557 117.14 212.385C117.292 213.635 118.162 214.626 119.514 214.443C120.882 214.258 121.437 213.067 121.258 211.826C120.552 206.957 119.873 202.085 119.279 197.2L118.602 191.635C117.753 184.678 116.883 177.722 115.882 170.787C115.464 167.888 115.029 164.991 114.593 162.094L114.746 161.897C115.369 161.087 116.014 160.295 116.651 159.498C117.876 157.96 119.085 156.435 120.207 154.826C120.263 154.745 120.15 154.627 120.069 154.688C118.496 155.85 117.006 157.093 115.509 158.355L114.198 159.465C113.443 154.46 112.696 149.453 112.03 144.435C112.014 144.309 111.825 144.3 111.829 144.435ZM89.1982 96.9283C90.1448 97.8209 91.1126 98.6941 92.0665 99.5811L92.416 99.9077L92.7638 100.236C94.4397 101.825 96.046 103.48 97.3841 105.38C99.8411 108.87 101.305 113.124 100.283 117.384C99.435 120.913 97.4899 124.112 96.9676 127.729C96.7053 129.541 96.8328 131.362 97.5154 133.074C98.2123 134.82 99.3257 136.315 100.326 137.891C102.499 141.314 102.795 145.071 102.58 149.036C102.353 153.177 101.878 157.321 101.29 161.425C100.102 169.74 98.3091 177.969 95.9367 186.027C94.7495 190.063 93.3471 194.012 91.9516 197.977C91.2564 199.951 90.4464 201.878 89.6112 203.796C89.1714 204.806 88.7204 205.81 88.2624 206.811C88.4313 205.396 88.4313 203.944 88.5143 202.537C88.6327 200.522 88.7834 198.511 88.9217 196.498C89.2034 192.412 89.4548 188.323 89.6795 184.233C90.4753 169.65 91.0607 155.054 91.0175 140.448C90.9959 133.144 90.8469 125.84 90.5328 118.542C90.3854 115.106 90.0999 111.673 89.8419 108.242L89.7871 107.507C89.5594 104.426 89.2863 101.339 88.8176 98.2862C88.9562 97.973 89.0768 97.6563 89.1662 97.331L89.1982 97.2087L89.1749 97.2122C89.1965 97.1167 89.2034 97.0221 89.1982 96.9283ZM81.0123 84.3784C80.9924 84.2942 80.8723 84.3011 80.8507 84.3784C80.3172 86.1744 80.506 88.1497 80.9657 89.9565C81.2132 90.9355 81.5653 91.8855 81.9909 92.8015L82.1399 93.122C82.5046 93.9019 82.9155 94.7055 83.6253 95.192C83.9217 95.3946 84.4518 95.4071 84.7482 95.192L84.899 95.077C84.924 95.0576 84.9486 95.0377 84.9724 95.0174C85.2489 94.7858 85.3854 94.2739 85.258 93.9364C84.9292 93.0654 84.1839 92.426 83.6685 91.6501C83.2123 90.9605 82.8083 90.233 82.4726 89.4769C81.7489 87.8408 81.4236 86.1044 81.0123 84.3784Z" fill="black"/>
<path id="Vector_4" fill-rule="evenodd" clip-rule="evenodd" d="M68.4512 19.2791C58.2749 19.2791 47.7495 27.1835 44.0197 32.2275C39.7064 38.0598 36.304 66.0582 37.9001 75.5583C39.4963 85.0589 47.4246 95.4136 61.1881 95.4136C74.9517 95.4136 83.3276 93.7148 83.6638 91.2474C83.8876 89.6022 86.9136 84.2013 92.7414 75.0442C98.7022 73.3644 101.695 70.5177 101.718 66.5044C101.741 62.4912 100.144 59.7547 96.9265 58.2944C98.0736 42.4566 97.2026 32.476 94.3136 28.3526C89.9798 22.1676 78.627 19.2791 68.4512 19.2791Z" fill="#FFDBB4"/>
<path id="Vector_5" fill-rule="evenodd" clip-rule="evenodd" d="M75.3124 3.93918C73.9437 2.32521 71.5299 3.85078 71.5843 5.61444C71.0382 5.76263 70.3936 6.27399 70.1448 6.94058C69.6069 6.90563 69.0647 7.01274 68.5765 7.2927L68.4736 7.16555C66.7809 5.09462 64.5408 3.3175 62.2294 4.84259C61.6003 5.25764 61.3186 5.94356 61.4573 6.68706L61.4681 6.73969L61.4167 6.51014C61.3648 6.29205 61.4426 6.72845 61.4716 6.82078L61.4754 6.83128C61.5364 6.98677 61.5973 7.06506 61.6526 7.18261C59.2863 5.49783 55.6826 6.48405 57.5815 9.74539L56.8094 9.44366C54.1381 8.40909 50.8161 7.29818 48.3811 9.15821C47.2924 10.2076 48.5008 11.6068 49.6099 11.946L49.4193 11.9141C47.2907 11.5518 42.8503 10.6566 42.2159 13.4333C41.9877 14.4324 42.6531 15.1625 43.4926 15.5646C41.7164 15.558 39.9646 15.8514 38.4276 16.7201C36.9656 17.7612 38.1472 19.4842 39.6761 19.409C39.2021 19.9964 39.0448 20.9905 39.5024 21.625C38.6336 21.8535 37.832 22.1475 37.0932 22.6057L36.8902 22.6319C35.4133 22.8165 33.7284 22.9264 32.916 24.3799C31.7204 27.5336 35.978 27.408 37.8055 26.3003C37.6971 26.477 37.6166 26.6698 37.5715 26.8758L36.9794 27.0423C34.7452 27.665 32.2168 28.3529 30.7784 30.2371C30.1191 31.3215 31.0367 33.1642 32.4152 32.8349C28.6797 34.6176 30.1114 39.3139 33.7646 36.8709C33.9354 37.0294 34.1433 37.1471 34.3609 37.1991L33.5901 37.6179C31.6321 38.6921 29.2775 40.1627 29.6863 42.6014C30.0751 43.8921 31.8617 43.6562 32.7698 43.1623C31.1832 44.5296 29.6861 46.0097 28.3262 47.6104L27.9499 48.0589C26.8922 49.3291 25.0522 51.6677 27.0454 52.8896C29.5025 54.1429 30.7271 50.442 32.1562 49.1213C31.0135 51.8155 34.7284 53.6944 36.025 50.9808C36.2428 51.0192 36.4617 51.0231 36.6763 50.9942C35.5585 52.1814 32.5351 60.3064 36.2958 58.5247C36.8947 57.89 37.4203 57.1957 37.9034 56.4673C37.2997 61.1225 36.8581 65.7998 36.5725 70.4801L36.4709 72.1767C36.367 73.9369 36.2885 75.7039 36.4857 77.458C36.7135 79.5002 37.2993 81.4163 38.1865 83.2663C39.0039 84.9725 40.0577 86.5529 41.2636 88.0058C41.9088 88.7835 42.5934 89.5396 43.4357 90.1086C44.1061 90.5613 44.8894 90.8595 45.6437 91.1468C46.8712 92.3751 48.4464 93.3039 49.9862 94.0453C52.5236 95.265 55.2748 95.9385 58.058 96.276C60.9039 96.619 63.7787 96.5365 66.6012 96.0461C69.2984 95.5791 72.1892 94.3849 73.8504 92.1094C73.9938 91.9136 73.7268 91.7287 73.5514 91.8095C68.7303 94.0453 63.3129 94.629 58.058 93.9235C55.6066 93.5947 53.1941 92.916 50.9557 91.8618C49.0668 90.9726 47.4734 89.6796 45.7781 88.5087C45.4485 88.0685 45.1149 87.6356 44.7352 87.2333L44.142 86.6103C43.6988 86.142 43.2635 85.6676 42.8678 85.1557C41.6453 83.577 40.6329 81.7862 39.9643 79.9025C38.664 76.2353 39.0156 72.2545 39.2454 68.4327L39.2653 68.0957C39.5019 64.0081 39.8874 59.9348 40.4213 55.8763C40.6433 54.187 40.8904 52.5007 41.161 50.8183C41.5946 50.1111 42.0578 49.4272 42.5762 48.7865C42.1543 50.4291 43.6151 52.7128 45.4065 51.6289C47.4574 49.8717 47.3585 47.0354 49.0776 44.8838C50.8593 42.1253 63.1552 36.7605 66.8107 36.0071C66.2218 36.8657 65.1461 37.4637 64.895 38.477C60.3992 42.4575 67.7275 44.5767 70.016 38.9037C69.9655 40.7924 69.7745 42.6646 69.3554 44.508C68.7445 46.2011 68.2654 51.107 71.3273 49.6263C72.7928 50.0506 73.9104 48.7994 74.0945 47.3879C75.153 50.5777 74.152 55.6741 76.0931 58.0248C76.6885 58.643 77.6087 58.2313 77.9181 57.5254C79.7136 57.054 79.5602 54.9564 79.7784 53.4551C81.4159 59.4393 83.4655 63.5934 83.7476 69.8359C82.4804 71.6436 85.2597 72.973 86.4526 71.5243C88.1267 69.1006 86.5831 65.7868 86.189 63.1332C86.66 63.109 87.1261 62.8995 87.515 62.442C87.7271 63.2745 87.6053 64.3715 87.534 65.2749C88.5955 69.4341 92.6316 66.7702 92.4644 63.3959C92.639 64.3481 92.7708 65.3094 92.8546 66.2781C92.0752 67.1767 91.4975 68.2525 91.1558 69.3944C90.91 70.2191 91.7468 70.7138 92.3854 70.5942C92.7254 71.7563 94.1995 72.5949 95.169 71.4842C96.1273 70.5129 96.2936 69.1092 96.3701 67.712C96.5036 67.5699 96.5848 67.3837 96.5714 67.1581C96.5593 66.9464 96.5075 66.7671 96.425 66.6159C96.4414 66.3303 96.4617 66.0499 96.4928 65.7791C97.2346 68.0913 96.752 70.5142 96.6872 72.8827C95.3768 73.6219 93.8811 73.9381 92.3789 74.2501L92.1607 74.2954C91.6971 74.3922 91.5498 75.0856 91.8993 75.3764C90.9691 76.2889 90.1664 77.3772 89.3831 78.3813C88.3432 79.7132 87.3486 81.0979 86.3813 82.4852L85.8132 83.3005C84.1546 85.6681 81.8613 88.8751 82.8882 91.7914C83.0282 92.1919 83.6124 92.3357 83.84 91.9154C84.5875 90.5324 85.0048 89.0095 85.7147 87.6105C86.4115 86.2383 87.2791 84.9669 88.1393 83.6954L88.6357 82.9587C89.4622 81.7278 90.2805 80.484 91.0391 79.2164L91.5675 78.3385C92.0639 77.5098 92.5552 76.6535 92.9211 75.7627C94.2237 76.0776 95.5872 75.8517 96.8367 75.3073L96.8527 75.3941L96.8842 75.551C97.0626 76.3036 98.0991 76.8181 98.761 76.3256C100.346 75.1284 100.991 73.3467 101.159 71.4414C101.479 70.9031 101.749 70.3349 101.97 69.7465C102.074 70.9199 102.526 72.0575 103.918 72.0225C106.333 71.8237 106.571 69.5374 105.917 67.2635C108.777 68.1389 109.112 64.0859 108.21 61.9503C108.545 61.8501 108.855 61.65 109.033 61.3804L109.181 61.641C109.731 62.5945 110.354 63.5203 111.222 64.0155C112.435 64.7067 114.199 63.8504 114.118 62.3275C113.858 59.8467 111.688 57.9565 110.367 55.9683C110.602 56.0015 110.846 55.9929 111.086 55.9484C113.727 57.4247 114.988 53.9502 114.057 51.9369C113.376 50.1284 112.142 48.5735 110.82 47.2022L111.208 47.4342C111.907 47.8472 112.687 48.2455 113.456 48.0835C118.487 51.3964 120.138 45.8248 114.493 44.0837L114.495 44.0577C115.061 43.5101 115.307 42.6435 114.867 41.7779C116.937 42.5067 119.893 40.8576 118.068 38.6037C116.878 37.4803 115.473 36.514 113.916 36.0082C113.994 35.5947 114.019 35.1738 113.987 34.7503L114.08 34.7629C115.063 34.9048 116.275 35.307 116.881 34.2463C117.188 33.7121 117.152 32.8319 116.648 32.4166C114.913 30.9867 112.933 29.7974 110.782 29.3152C110.703 29.0528 110.621 28.7919 110.534 28.5323C112.369 28.4981 114.429 26.0561 112.321 24.6724C110.468 23.7263 108.559 23.1178 106.467 23.1743C107.694 21.9623 106.97 19.7654 105.339 19.4277C106.407 17.1486 103.768 15.9727 101.8 16.3321C101.872 15.3195 101.331 14.1909 100.29 13.9368C100.837 10.7326 97.4506 11.0357 95.3293 11.7952C96.0396 10.5599 95.3094 9.10662 94.0565 8.67341C92.0043 8.20789 90.0407 10.1668 88.478 11.3682C89.0107 10.1149 88.5614 8.95938 87.2925 8.45999C85.9851 7.94737 84.5767 8.93804 83.4858 9.61125C82.8926 8.86481 81.8799 8.62148 80.9713 8.66762C80.8745 8.38732 80.7319 8.1535 80.5492 7.96867C80.5544 6.24146 77.6199 5.29187 76.5956 6.90079C76.4215 5.78207 75.9622 4.70561 75.3124 3.93918ZM38.5988 35.2667L38.565 35.4526C38.5215 35.4911 38.4808 35.5317 38.4391 35.5711C38.3082 35.6021 38.182 35.6348 38.0622 35.6683C38.2367 35.5268 38.4163 35.3958 38.5988 35.2667ZM36.3336 30.7339L36.3734 30.7892C36.3802 30.7983 36.3872 30.8073 36.3944 30.8159C36.2838 30.8579 36.1735 30.9008 36.0636 30.9451L35.8991 31.0125L35.841 31.0381C36.0045 30.9354 36.1686 30.8335 36.3336 30.7339ZM62.7495 7.91505L62.8485 7.93964C62.88 7.94733 62.9098 7.95445 62.9375 7.96102C62.9474 7.96361 62.9569 7.96474 62.966 7.9685L62.9401 7.96288C62.9867 7.99857 63.0485 8.0406 63.0995 8.07426C63.0494 8.07016 62.9992 8.06527 62.9491 8.06251C62.883 8.01317 62.8165 7.964 62.7495 7.91505Z" fill="black"/>
<path id="Vector_6" fill-rule="evenodd" clip-rule="evenodd" d="M53.2904 78.9213C53.0152 78.4422 52.381 77.9985 51.8003 78.0667C49.1999 78.3713 49.2046 81.5239 50.2087 83.3644C51.0987 84.9967 52.9413 85.9545 54.7853 85.8145C56.7226 85.6676 58.3734 84.5288 59.0997 82.7164C59.5801 81.5174 59.8021 79.3045 58.5242 78.4988C58.5004 78.4836 58.4615 78.4875 58.4425 78.5091C57.8299 79.222 57.8057 80.2922 57.2691 81.0858C56.7701 81.8242 55.995 82.4338 55.0873 82.5275C54.409 82.598 53.7229 82.3534 53.4576 81.7447C53.3142 81.4155 53.3306 81.2366 53.3846 81.0098L53.4334 80.8128C53.6032 80.1228 53.6797 79.5979 53.2904 78.9213ZM52.5957 65.0951C51.2395 65.9195 49.1731 67.8416 50.6316 69.8856C52.349 71.6872 54.8216 69.6212 56.0404 68.6867C57.1702 67.9626 58.4395 69.8251 57.3909 70.6706C48.5868 77.1893 45.0138 65.3107 51.9096 64.1261C52.6687 63.9952 52.9508 64.8402 52.5957 65.0951ZM66.917 59.4423C66.0845 58.1937 64.1843 58.3773 63.7259 59.8597C63.4775 60.6624 63.8206 61.3839 63.8028 62.1858C63.7877 62.8628 63.8322 63.6176 64.0396 64.2734C64.5131 65.7691 65.8585 66.8255 67.4497 66.7818C69.0362 66.7382 70.4329 65.7341 71.0974 64.3201C71.7641 62.9008 71.6228 61.4319 71.1363 59.9888C71.113 59.9193 71.0218 59.8856 70.9669 59.9439C70.3919 60.5557 69.9707 61.2007 69.5347 61.8855L69.0884 62.5871C68.7471 63.1155 68.2511 63.7904 67.6139 63.748L67.518 63.739C67.3408 63.7234 67.368 63.7588 67.2315 63.5173C67.1684 63.4054 67.1797 63.198 67.1494 63.0663L67.1386 63.0218L67.1447 62.9976C67.1581 62.9336 67.1715 62.8135 67.1823 62.6048L67.1844 62.5586C67.2307 61.5822 67.5067 60.3276 66.917 59.4423ZM45.8161 60.274C45.9652 58.6767 43.7196 58.322 42.973 59.5037C42.5836 60.1202 42.4703 60.8944 42.3842 61.628L42.3439 61.9762C42.2555 62.7297 42.2205 63.5134 42.5476 64.2159C43.0626 65.3228 44.1826 65.9078 45.391 65.8153C46.545 65.7268 47.5979 65.0575 48.1526 64.0418C48.6477 63.1358 49.1394 61.3662 48.5384 60.4213C48.5021 60.3639 48.4295 60.3565 48.3799 60.4006C47.8122 60.9048 47.7197 61.8242 47.3818 62.4813C47.0336 63.1587 46.5057 63.8189 45.7051 63.9217C44.9391 64.0202 44.6466 63.602 44.8419 62.8719C45.0942 61.9291 45.7211 61.288 45.8161 60.274ZM66.3104 49.9461L65.9432 49.8056C64.6846 49.33 62.9573 48.7808 61.9343 49.8039C61.3031 50.4347 61.1829 51.364 61.6336 52.1339C62.1792 53.0667 63.1582 53.0896 64.1035 53.227C65.1789 53.3834 66.2724 53.6806 67.2734 54.104C68.4011 54.581 69.4479 55.1759 70.4731 55.8404C71.4474 56.4716 72.4186 57.5033 73.5851 57.6977C73.6326 57.7055 73.6866 57.6852 73.6992 57.6329C73.964 56.4923 73.2278 55.3703 72.5707 54.4803C71.7762 53.4032 70.8127 52.5193 69.7365 51.7265C68.6974 50.9614 67.5102 50.4083 66.3104 49.9461ZM43.4538 54.0008L43.3417 53.9809C42.5786 53.8539 41.8872 53.8832 41.3121 54.4877C40.8732 54.9487 40.704 55.5462 40.9133 56.1558C41.1063 56.7179 41.5381 57.2895 42.1647 57.407C44.2802 57.8053 46.6232 57.7392 48.7492 57.4381C49.7222 57.3003 50.7034 57.1313 51.6508 56.8652L52.0868 56.7386C52.8778 56.5126 53.7834 56.2767 54.358 55.6952C54.5645 55.4861 54.4453 55.1867 54.1981 55.0899C53.1958 54.6972 51.8215 54.9063 50.7526 54.8756C49.5092 54.8398 48.2636 54.7469 47.0263 54.6186C45.8166 54.4929 44.6466 54.2194 43.4538 54.0008Z" fill="black"/>
<path id="Vector_7" fill-rule="evenodd" clip-rule="evenodd" d="M36.5225 66.1891C38.703 68.4422 42.343 69.0885 45.2441 67.8801C52.6929 64.7681 49.0469 55.061 43.3023 52.4541C42.5846 52.2752 41.6261 51.8509 40.752 51.7546C40.673 51.7157 40.5009 51.828 40.2924 51.7217C33.9579 52.429 32.5154 62.2622 36.5225 66.1891ZM60.5483 66.7658C62.9941 70.0092 67.5404 71.0102 71.2551 69.5019C78.5938 66.612 75.9911 58.0045 70.97 54.6298C60.3638 50.6442 55.9838 60.7851 60.5483 66.7658ZM76.4569 59.5788C76.4638 59.5754 76.4707 59.5737 76.4776 59.5706C76.4387 59.5533 76.3999 59.5365 76.3614 59.5192C76.3739 59.552 76.3878 59.5845 76.3999 59.6173C76.4189 59.6043 76.4357 59.5888 76.4569 59.5788ZM31.4737 56.0724C32.0726 56.0737 32.9375 56.1722 33.4331 56.5874C34.6555 52.4653 39.1673 48.6499 43.091 51.4318C46.1808 52.4255 48.474 54.6294 49.7771 57.5595C52.1265 56.1618 55.8213 56.7585 57.8588 58.6067C59.193 54.1978 62.4773 52.6537 66.386 52.4255C70.6524 51.7269 74.905 55.8702 76.2318 59.1943C77.3352 59.0686 78.9835 58.7178 80.0217 59.3987C86.7576 57.6321 98.5346 56.6582 99.9037 57.6394C100.88 58.014 101.415 60.3176 100.052 60.4416C98.8643 60.2731 100.191 58.7541 98.9934 58.5882C92.6139 58.1928 86.4206 59.4777 80.1081 60.0165C79.5447 60.7747 77.7236 61.0283 76.7524 60.7237C78.2823 66.3623 74.9797 70.1984 70.0307 71.3476C62.368 73.1078 55.7012 66.253 57.705 59.123C55.3837 57.9682 52.7137 58.0179 50.1849 58.6262C54.4107 74.1771 29.3648 73.4793 33.2765 57.1205C30.6733 58.4153 30.1079 56.3338 31.4737 56.0724Z" fill="black"/>
</g>
</svg>
